<svg xmlns="http://www.w3.org/2000/svg" viewBox="0 0 133.3 195.26"><defs><style>.cls-1{fill:#ff6f61}</style></defs><g id="Слой_2" data-name="Слой 2"><g id="Слой_1-2" data-name="Слой 1"><circle class="cls-1" cx="36.79" cy="158.47" r="36.79"/><path class="cls-1" d="M37.22 28.82v22.42A28.86 28.86 0 0 0 64.35 80a.11.11 0 0 1 .09.1v13.1a2.84 2.84 0 0 0 2 2.8 2.69 2.69 0 0 0 2.65-.7l3-3a41.51 41.51 0 0 1 29.54-12.24h2.75a28.92 28.92 0 0 0 28.92-28.92V28.92A28.92 28.92 0 0 0 104.38 0H66a28.85 28.85 0 0 0-28.78 28.82z"/></g></g></svg>