<svg xmlns="http://www.w3.org/2000/svg" viewBox="0 0 330.46 257.86"><g data-name="Слой 2"><g data-name="Слой 1"><g data-name="Слой 2"><path d="M233 197.25a37.79 37.79 0 1 1 37.79-37.79A37.83 37.83 0 0 1 233 197.25zm0-73.57a35.79 35.79 0 1 0 35.79 35.79A35.79 35.79 0 0 0 233 123.68zM108.23 257.86c-31.51 0-58.52-10.13-78.09-29.29C10.42 209.28 0 182.48 0 151.09c0-30.41 9.45-56.54 27.33-75.59 19.15-20.4 47-31.18 80.61-31.18A108.06 108.06 0 0 1 151.31 53a21.8 21.8 0 0 1 11.9 13.28 22.07 22.07 0 0 1-2 18l-.61 1a22.15 22.15 0 0 1-27.08 9.24A69.47 69.47 0 0 0 108 90.11c-15.68 0-29.8 5.52-39.76 15.55-10.8 10.88-16.51 26.57-16.51 45.39 0 35.95 25 60.95 60.92 60.95a73.12 73.12 0 0 0 27.35-5.42 22.05 22.05 0 0 1 27.77 10.47 21.93 21.93 0 0 1-9.43 29.48c-14.14 7.2-32.4 11.33-50.11 11.33zm-.29-211.54c-33 0-60.39 10.56-79.15 30.55C11.26 95.54 2 121.2 2 151.09c0 62.66 42.69 104.77 106.23 104.77 17.41 0 35.34-4.05 49.19-11.11a20 20 0 0 0-16.67-36.31 75.43 75.43 0 0 1-28.14 5.56c-37.06 0-62.94-25.88-62.94-62.94 0-19.35 5.91-35.54 17.09-46.8 10.34-10.41 25-16.14 41.18-16.14a71.42 71.42 0 0 1 26.28 4.54 20.14 20.14 0 0 0 24.64-8.39l.61-1a20.1 20.1 0 0 0 1.84-16.36 19.78 19.78 0 0 0-10.81-12.06 106 106 0 0 0-42.56-8.53zM263.33 98.1a3.71 3.71 0 0 1-3.73-3.69 1.47 1.47 0 0 1 0-.21V82a29.84 29.84 0 0 1-27.22-29.71V29.82A29.86 29.86 0 0 1 262.2 0h38.33a30 30 0 0 1 29.93 29.92v22.22a30 30 0 0 1-29.93 29.92h-2.75A40.49 40.49 0 0 0 269 94l-3 3a3.71 3.71 0 0 1-2.67 1.1zM262.2 2a27.85 27.85 0 0 0-27.82 27.82v22.42A27.84 27.84 0 0 0 260.57 80a1.09 1.09 0 0 1 1 1.09V94.2a1.88 1.88 0 0 0 1.28 1.8 1.72 1.72 0 0 0 1.68-.45l3-3A42.47 42.47 0 0 1 297.77 80h2.75a28 28 0 0 0 27.93-27.9V29.92A28 28 0 0 0 300.53 2z" fill="#fff" data-name="Слой 1-2"/></g></g></g></svg>