<svg xmlns="http://www.w3.org/2000/svg" viewBox="0 0 133.3 195.26"><defs><style>.cls-1{fill:#ff6f61;}</style></defs><title>icon_3_part_2</title><g id="Слой_2" data-name="Слой 2"><g id="Слой_1-2" data-name="Слой 1"><circle class="cls-1" cx="36.79" cy="158.47" r="36.79"/><path class="cls-1" d="M37.22,28.82V51.24A28.86,28.86,0,0,0,64.35,80a.11.11,0,0,1,.09.1V93.2a2.84,2.84,0,0,0,2,2.8,2.69,2.69,0,0,0,2.65-.7l3-3a41.51,41.51,0,0,1,29.54-12.24h2.75A28.92,28.92,0,0,0,133.3,51.14h0V28.92A28.92,28.92,0,0,0,104.38,0H66A28.85,28.85,0,0,0,37.22,28.82Z"/></g></g></svg>