<svg version="1.0" xmlns="http://www.w3.org/2000/svg" width="372" height="372" viewBox="0 0 279 279"><path d="M166.3.8c-4.7.7-16.7 23.6-20.9 39.9-1.4 5.4-2.8 13.4-3.1 17.8l-.5 8 3.2 1.8c5.2 3.1 17.6 16 22.3 23.3 2.4 3.8 5.7 10 7.3 13.9 2.6 6.2 3.2 7 5.7 7.1 1.5.1 2.7.1 2.7 0 0 0-1.8-5.1-3.9-11.3-4.8-14.1-10.7-24.4-19.1-33.6l-6.7-7.2 1.7-7c3.7-15.1 10-27.9 20.8-42.2C179.7 5.9 183 1.2 183 .8c0-.7-11.5-.7-16.7 0z"/><path d="M193.7 3.3c-1.1 1.7-3.9 7-6.4 11.6-2.5 4.6-7.4 13-10.8 18.7-3.5 5.6-7.5 13.4-9 17.2l-2.7 6.8 4.5 6.5c2.4 3.5 7.6 12.9 11.6 20.9 3.9 8 8.8 17.4 10.9 21l3.8 6.4 6.2.1c3.4.1 6.2 0 6.2-.1 0-.2-6.8-12.8-15.1-28l-15.2-27.7 2.6-5.1c2.7-5.3 7.2-13.6 20.1-37C204.6 7 208 .6 208 .4c0-.2-2.8-.4-6.2-.4-6 0-6.4.1-8.1 3.3z"/><path d="M209.9 18.7c-5.6 10.4-11.8 21.7-13.7 25.3-2 3.6-4.3 7.8-5.2 9.4-1.6 3-1.6 3.1 5.3 15.5C206.2 87 207 88.3 213.8 101l6.2 11.5h6c3.3 0 6-.3 6-.8 0-.7-3-6.5-10-19.2-10.9-19.9-19.4-36.1-19.2-36.8.2-.7 22.2-41.2 27.6-51l2.7-4.7h-12.9l-10.3 18.7zM134 8.1c-4.7 1.7-9 3.7-9.7 4.5-1 1.3-3.5 10.5-4.7 17-2.6 13.8-2.3 29.8.7 44.7l1.2 5.9 8.1 3.2c15.8 6.3 25.3 13.4 38.5 28.8 1.8 2 2.8 2.5 3.8 1.9 1.2-.8 1.3-1.4.2-3.7-2.5-5.6-8.8-14.1-15-20.3-6.1-6-19-15.3-23.1-16.6-1-.3-2.2-1.5-2.6-2.7-.8-2.5-.8-21.7 0-25.5.3-1.6.8-4.4 1.1-6.3 1.3-8.1 5.2-20.2 9.1-28.4 1.3-2.8 2.4-5.1 2.4-5.3 0-.6-1.6-.1-10 2.8z"/><path d="M231.9 23.8c-2 3.7-6.8 12.5-10.7 19.7l-7.1 12.9 2.3 4.1c1.3 2.2 6.1 11 10.7 19.5l8.4 15.5.3-11.3.3-11.3-4.6-8.3-4.5-8.3 4.5-8.4 4.6-8.4-.3-11.2-.3-11.2-3.6 6.7zM97.3 28.1l-8 6.1.2 7.1c.7 21.3 6.5 41.5 16.4 57.2 1 1.6 2.5 2.1 6.8 2.2 13.9.3 31.1 5.7 42.9 13.5 6 3.8 7.9 4.6 9 3.7 1-.8 1.1-1.6.4-2.9-1.6-3-16.3-13.5-24.2-17.4C134 94.3 120 90 116 90c-1.9 0-4.7-5.7-7.3-15-3.9-13.5-5-29.8-3.4-46.3.4-3.7.6-6.7.3-6.7-.2 0-3.9 2.7-8.3 6.1z"/><path d="M69.6 55.8c-7.5 10-7.5 10.2-3.1 21.2 6.8 17.1 14.2 28.7 25.6 40 6.6 6.7 7 6.8 10.1 5.9 1.8-.6 4.4-1.2 5.8-1.5 1.4-.2 3.6-.7 5-1 8.6-2.2 29.7-.5 40.1 3.1 3.1 1.1 4.5 1.2 5.5.4 2.2-1.8 1.7-2.5-4.3-5.4-13.6-6.5-33.1-9.6-46.9-7.5l-4.5.7-4.8-5.9c-9.5-11.7-17.6-29.5-21-46.3-1.1-5.3-2.1-9.8-2.3-10-.2-.1-2.5 2.7-5.2 6.3z"/><path d="M52.5 85.7c-.4 1-2 5.5-3.5 10l-2.9 8.3 4.6 6.2c10.5 14.4 31.1 31.5 43.6 36.3l4.4 1.7 5.4-3.4c6.9-4.4 17.6-8.8 25.1-10.4 8.5-1.8 11.8-2.2 18.1-2.2 4.8 0 7.2-.4 7.8-1.3 1.1-1.7 1.1-2.9.2-3-.5 0-1.7-.3-2.8-.6-1.1-.3-8.3-.5-16-.5-14.5 0-20.1 1.1-34.6 6.7l-4.7 1.8-6.5-4.7c-13.3-9.4-26-24.4-33.9-39.9-2.8-5.5-3.7-6.5-4.3-5z"/><path d="M42.3 135.2l.2 10.3 8 5.7c12.1 8.7 30.6 17.2 42.3 19.3 11.8 2.1 10.9 2.3 17.1-4.2 10.6-11.4 27.1-21.7 39.1-24.5 4.2-1 5-1.5 5-3.5 0-2.7.4-2.6-8-1.2-13.2 2.1-28.2 8.9-39.8 18.1l-6.3 5-7.7-2.7c-15.1-5.4-29.1-13.9-41.2-25.4-4.1-3.8-7.8-7-8.2-7.1-.3 0-.6 4.6-.5 10.2z"/><path d="M146.5 147.6c-13.8 7.2-25.3 17.7-33.9 31.3l-2.8 4.4-9.7-.6c-16.8-.9-35.5-6.3-49.7-14.3l-6.2-3.4 1.5 6.8c3.2 13.8 2.8 13.3 13.4 16.9 14.1 4.8 23.2 6.2 39.4 5.8 7.7-.2 14.9-.5 16-.8 1.1-.3 2.3-.6 2.6-.6.4-.1 1.7-2.5 2.9-5.4 5.5-12.9 17.8-27.8 28.9-35.2 4.4-2.9 6.1-4.6 6.1-6.3 0-1.2-.4-2.2-.8-2.2s-3.9 1.6-7.7 3.6z"/><path d="M150.6 157.2c-10.5 10.3-18.1 22.8-22.2 36.7l-2.1 7.5-5.4 1.8c-14 4.8-40.5 5.9-55.9 2.5-3.6-.8-6.6-1.4-6.7-1.3-.5.4 9.7 16.5 10.8 17.2 1.2.7 24.1.8 27.4.1 1.1-.3 4-.8 6.5-1.2 6.6-1.1 7.1-1.2 12-2.5 2.5-.6 5.9-1.7 7.5-2.4 8.7-3.7 13.5-6 13.6-6.5 0-.3.2-1.5.4-2.6s.5-3.6.8-5.5c1.7-12.6 8.3-28.2 16.6-39.2 3.2-4.1 4.9-7.3 4.5-8.2-.9-2.5-2-2-7.8 3.6z"/><path d="M158.4 162.5c-7.3 12.6-11.5 27.8-11.8 43.3l-.2 9.3-4.4 3.1c-14.4 9.7-33.5 16.3-53.1 18.4-3 .3-5.6.8-5.9 1.1-.5.5.9 1.7 10.3 9.3 5.5 4.5 5.7 4.5 20.2-.3 15.7-5.2 30.2-13.4 40.6-23.1 3.6-3.4 4.9-5.2 4.4-6.4-1.3-3.3-2-10.8-1.9-20.7.1-10.8 2.2-21.5 6-30.2 2-4.7 2.1-5.4.8-6.8-.9-.8-1.7-1.5-1.9-1.5-.2 0-1.6 2-3.1 4.5z"/><path d="M167.4 164.4c-2.1 5.4-3.2 15.3-2.9 25.1.4 12.6.8 15.3 4 25.1l2.2 7.2-6.1 6.9c-10.7 12.1-21.7 20.3-37.1 27.7-4.9 2.4-9.7 4.5-10.5 4.8-1.7.6 10.8 7.2 15.6 8.2 2.6.6 4.3-.2 12-5.2 15.1-10 28.8-24.2 36.4-37.9l2.3-4.2-2.8-5.8c-7.1-15.1-9.9-27.3-9.4-41.7.2-5 0-9.7-.4-10.4-1.1-1.6-2.6-1.5-3.3.2z"/><path d="M175.7 165.8c-.5 1-.1 7 .7 13.2 1.4 8.9 4.3 16.5 11.8 29.8l7 12.7-5.3 10.3c-9.5 18.6-16.3 27.3-31.9 41.1-3 2.6-3.2 3.1-1.5 3.1 1.1.1 2.9.3 4 .5 1.1.3 4.8.7 8.3 1.1 5.3.5 6.7.3 8.4-1.3 2.1-1.9 6.7-9.5 14-23.3 4.5-8.3 6.4-11.9 13.5-24.7l3.4-6.3-4.6-8.7c-2.6-4.9-5.5-10.2-6.5-11.8-7.9-13.7-17-31.5-17-33.4 0-1.8-3.6-3.7-4.3-2.3z"/><path d="M192.8 165.8c-1.6.2-2.8.5-2.8.8 0 .3 6.8 12.8 15 27.9l15 27.5-2.8 5.3c-4.5 8.1-14.5 26.4-18.7 34.2-2.1 3.8-4.9 8.9-6.3 11.3-1.3 2.4-2.2 4.6-1.8 4.9.9.9 12 .6 12.3-.4.2-.4 7-13 15.2-28l14.9-27.2-2-3.8c-2-3.7-28-51.6-28.2-52-.3-.5-7.3-.8-9.8-.5zm24.1 0c-2.6.3-2.6.4 8 19.8l10.6 19.5.3-11.4.3-11.5-3.6-6c-1.9-3.3-3.5-6.5-3.5-7 0-2.8-5.1-4.2-12.1-3.4zm15.2 79.2c-1.9 3.6-5.1 9.4-7.1 13-2 3.6-5.3 9.5-7.2 13.2l-3.6 6.6 3.7.4c8.1.7 8.7.3 13.6-8.7l4.6-8.3-.3-11.3-.3-11.3-3.4 6.4z"/></svg>