<?xml version="1.0" standalone="no"?>
<!DOCTYPE svg PUBLIC "-//W3C//DTD SVG 20010904//EN"
 "http://www.w3.org/TR/2001/REC-SVG-20010904/DTD/svg10.dtd">
<svg version="1.0" xmlns="http://www.w3.org/2000/svg"
 width="256.000000pt" height="256.000000pt" viewBox="0 0 256.000000 256.000000"
 preserveAspectRatio="xMidYMid meet">
<metadata>
Created by potrace 1.11, written by Peter Selinger 2001-2013
</metadata>
<g transform="translate(0.000000,256.000000) scale(0.100000,-0.100000)"
fill="#000000" stroke="none">
<path d="M1233 2506 c-13 -6 -23 -14 -23 -18 0 -5 -5 -8 -12 -8 -16 0 -342
-162 -346 -172 -2 -4 -8 -8 -13 -8 -16 0 -89 -35 -89 -42 0 -5 -5 -8 -12 -8
-16 0 -242 -112 -246 -122 -2 -4 -10 -8 -19 -8 -17 0 -76 -31 -81 -42 -2 -5
-9 -8 -15 -8 -6 0 -57 -23 -114 -51 l-103 -52 0 -677 c0 -632 1 -678 18 -692
28 -25 1080 -548 1102 -548 22 0 1074 523 1103 548 16 14 17 59 17 682 0 623
-1 668 -17 682 -24 21 -1100 558 -1116 557 -7 -1 -22 -6 -34 -13z"/>
</g>
</svg>
