<?xml version="1.0" standalone="no"?>
<!DOCTYPE svg PUBLIC "-//W3C//DTD SVG 20010904//EN"
 "http://www.w3.org/TR/2001/REC-SVG-20010904/DTD/svg10.dtd">
<svg version="1.0" xmlns="http://www.w3.org/2000/svg"
 width="279.000000pt" height="279.000000pt" viewBox="0 0 279.000000 279.000000"
 preserveAspectRatio="xMidYMid meet">
<metadata>
Created by potrace 1.11, written by Peter Selinger 2001-2013
</metadata>
<g transform="translate(0.000000,279.000000) scale(0.100000,-0.100000)"
fill="#000000" stroke="none">
<path d="M1663 2782 c-47 -7 -167 -236 -209 -399 -14 -54 -28 -134 -31 -178
l-5 -80 32 -18 c52 -31 176 -160 223 -233 24 -38 57 -100 73 -139 26 -62 32
-70 57 -71 15 -1 27 -1 27 0 0 0 -18 51 -39 113 -48 141 -107 244 -191 336
l-67 72 17 70 c37 151 100 279 208 422 39 54 72 101 72 105 0 7 -115 7 -167 0z"/>
<path d="M1937 2757 c-11 -17 -39 -70 -64 -116 -25 -46 -74 -130 -108 -187
-35 -56 -75 -134 -90 -172 l-27 -68 45 -65 c24 -35 76 -129 116 -209 39 -80
88 -174 109 -210 l38 -64 62 -1 c34 -1 62 0 62 1 0 2 -68 128 -151 280 l-152
277 26 51 c27 53 72 136 201 370 42 76 76 140 76 142 0 2 -28 4 -62 4 -60 0
-64 -1 -81 -33z"/>
<path d="M2099 2603 c-56 -104 -118 -217 -137 -253 -20 -36 -43 -78 -52 -94
-16 -30 -16 -31 53 -155 99 -181 107 -194 175 -321 l62 -115 60 0 c33 0 60 3
60 8 0 7 -30 65 -100 192 -109 199 -194 361 -192 368 2 7 222 412 276 510 l27
47 -65 0 -64 0 -103 -187z"/>
<path d="M1340 2709 c-47 -17 -90 -37 -97 -45 -10 -13 -35 -105 -47 -170 -26
-138 -23 -298 7 -447 l12 -59 81 -32 c158 -63 253 -134 385 -288 18 -20 28
-25 38 -19 12 8 13 14 2 37 -25 56 -88 141 -150 203 -61 60 -190 153 -231 166
-10 3 -22 15 -26 27 -8 25 -8 217 0 255 3 16 8 44 11 63 13 81 52 202 91 284
13 28 24 51 24 53 0 6 -16 1 -100 -28z"/>
<path d="M2319 2552 c-20 -37 -68 -125 -107 -197 l-71 -129 23 -41 c13 -22 61
-110 107 -195 l84 -155 3 113 3 113 -46 83 -45 83 45 84 46 84 -3 112 -3 112
-36 -67z"/>
<path d="M973 2509 l-80 -61 2 -71 c7 -213 65 -415 164 -572 10 -16 25 -21 68
-22 139 -3 311 -57 429 -135 60 -38 79 -46 90 -37 10 8 11 16 4 29 -16 30
-163 135 -242 174 -68 33 -208 76 -248 76 -19 0 -47 57 -73 150 -39 135 -50
298 -34 463 4 37 6 67 3 67 -2 0 -39 -27 -83 -61z"/>
<path d="M696 2232 c-75 -100 -75 -102 -31 -212 68 -171 142 -287 256 -400 66
-67 70 -68 101 -59 18 6 44 12 58 15 14 2 36 7 50 10 86 22 297 5 401 -31 31
-11 45 -12 55 -4 22 18 17 25 -43 54 -136 65 -331 96 -469 75 l-45 -7 -48 59
c-95 117 -176 295 -210 463 -11 53 -21 98 -23 100 -2 1 -25 -27 -52 -63z"/>
<path d="M525 1933 c-4 -10 -20 -55 -35 -100 l-29 -83 46 -62 c105 -144 311
-315 436 -363 l44 -17 54 34 c69 44 176 88 251 104 85 18 118 22 181 22 48 0
72 4 78 13 11 17 11 29 2 30 -5 0 -17 3 -28 6 -11 3 -83 5 -160 5 -145 0 -201
-11 -346 -67 l-47 -18 -65 47 c-133 94 -260 244 -339 399 -28 55 -37 65 -43
50z"/>
<path d="M423 1438 l2 -103 80 -57 c121 -87 306 -172 423 -193 118 -21 109
-23 171 42 106 114 271 217 391 245 42 10 50 15 50 35 0 27 4 26 -80 12 -132
-21 -282 -89 -398 -181 l-63 -50 -77 27 c-151 54 -291 139 -412 254 -41 38
-78 70 -82 71 -3 0 -6 -46 -5 -102z"/>
<path d="M1465 1314 c-138 -72 -253 -177 -339 -313 l-28 -44 -97 6 c-168 9
-355 63 -497 143 l-62 34 15 -68 c32 -138 28 -133 134 -169 141 -48 232 -62
394 -58 77 2 149 5 160 8 11 3 23 6 26 6 4 1 17 25 29 54 55 129 178 278 289
352 44 29 61 46 61 63 0 12 -4 22 -8 22 -4 0 -39 -16 -77 -36z"/>
<path d="M1506 1218 c-105 -103 -181 -228 -222 -367 l-21 -75 -54 -18 c-140
-48 -405 -59 -559 -25 -36 8 -66 14 -67 13 -5 -4 97 -165 108 -172 12 -7 241
-8 274 -1 11 3 40 8 65 12 66 11 71 12 120 25 25 6 59 17 75 24 87 37 135 60
136 65 0 3 2 15 4 26 2 11 5 36 8 55 17 126 83 282 166 392 32 41 49 73 45 82
-9 25 -20 20 -78 -36z"/>
<path d="M1584 1165 c-73 -126 -115 -278 -118 -433 l-2 -93 -44 -31 c-144 -97
-335 -163 -531 -184 -30 -3 -56 -8 -59 -11 -5 -5 9 -17 103 -93 55 -45 57 -45
202 3 157 52 302 134 406 231 36 34 49 52 44 64 -13 33 -20 108 -19 207 1 108
22 215 60 302 20 47 21 54 8 68 -9 8 -17 15 -19 15 -2 0 -16 -20 -31 -45z"/>
<path d="M1674 1146 c-21 -54 -32 -153 -29 -251 4 -126 8 -153 40 -251 l22
-72 -61 -69 c-107 -121 -217 -203 -371 -277 -49 -24 -97 -45 -105 -48 -17 -6
108 -72 156 -82 26 -6 43 2 120 52 151 100 288 242 364 379 l23 42 -28 58
c-71 151 -99 273 -94 417 2 50 0 97 -4 104 -11 16 -26 15 -33 -2z"/>
<path d="M1757 1132 c-5 -10 -1 -70 7 -132 14 -89 43 -165 118 -298 l70 -127
-53 -103 c-95 -186 -163 -273 -319 -411 -30 -26 -32 -31 -15 -31 11 -1 29 -3
40 -5 11 -3 48 -7 83 -11 53 -5 67 -3 84 13 21 19 67 95 140 233 45 83 64 119
135 247 l34 63 -46 87 c-26 49 -55 102 -65 118 -79 137 -170 315 -170 334 0
18 -36 37 -43 23z"/>
<path d="M1928 1132 c-16 -2 -28 -5 -28 -8 0 -3 68 -128 150 -279 l150 -275
-28 -53 c-45 -81 -145 -264 -187 -342 -21 -38 -49 -89 -63 -113 -13 -24 -22
-46 -18 -49 9 -9 120 -6 123 4 2 4 70 130 152 280 l149 272 -20 38 c-20 37
-280 516 -282 520 -3 5 -73 8 -98 5z"/>
<path d="M2169 1132 c-26 -3 -26 -4 80 -198 l106 -195 3 114 3 115 -36 60
c-19 33 -35 65 -35 70 0 28 -51 42 -121 34z"/>
<path d="M2321 340 c-19 -36 -51 -94 -71 -130 -20 -36 -53 -95 -72 -132 l-36
-66 37 -4 c81 -7 87 -3 136 87 l46 83 -3 113 -3 113 -34 -64z"/>
</g>
</svg>
