<svg xmlns="http://www.w3.org/2000/svg" viewBox="0 0 65 24.68"><defs><style>.cls-1{fill:#fff;}</style></defs><title>agima</title><g id="Слой_2" data-name="Слой 2"><g id="Слой_1-2" data-name="Слой 1"><g id="Слой_2-2" data-name="Слой 2"><g id="Layer_5" data-name="Layer 5"><path class="cls-1" d="M2,6.87V1.45H0V.2H5.33V1.45H3.39V6.87Z"/><path class="cls-1" d="M5.17,4.45A2.44,2.44,0,0,1,7.54,1.92h.18a2.45,2.45,0,0,1,2.56,2.34v.19A2.45,2.45,0,0,1,8,7H7.72A2.45,2.45,0,0,1,5.17,4.66ZM9,4.45a1.24,1.24,0,1,0-2.47-.22.81.81,0,0,0,0,.22A1.25,1.25,0,1,0,9,4.84,1.27,1.27,0,0,0,9,4.45Z"/><path class="cls-1" d="M11.37,8.11l.57-.92a1.94,1.94,0,0,0,1.51.6,1.18,1.18,0,0,0,1.32-1,1.34,1.34,0,0,0,0-.2V6.08a1.89,1.89,0,0,1-1.49.76c-1.21,0-2.13-.85-2.13-2.46A2.16,2.16,0,0,1,13,1.94l.29,0a1.85,1.85,0,0,1,1.49.74V2h1.28v4.5c0,1.84-1.42,2.29-2.61,2.29A2.92,2.92,0,0,1,11.37,8.11Zm3.41-2.95V3.6A1.36,1.36,0,0,0,13.69,3a1.21,1.21,0,0,0-1.23,1.17.81.81,0,0,0,0,.16,1.2,1.2,0,0,0,1,1.36h.2A1.41,1.41,0,0,0,14.78,5.16Z"/><path class="cls-1" d="M17.26,4.45a2.46,2.46,0,0,1,2.39-2.53h.11a2.41,2.41,0,0,1,2.43,2.41,2.09,2.09,0,0,1,0,.25v.28H18.59A1.31,1.31,0,0,0,20,6a2.09,2.09,0,0,0,1.29-.48l.56.82a3,3,0,0,1-2,.67,2.45,2.45,0,0,1-2.59-2.3Zm2.5-1.52A1.16,1.16,0,0,0,18.57,4H21a1.13,1.13,0,0,0-1.15-1.09Z"/><path class="cls-1" d="M23.6,5.67V3.15h-.8V2h.8V.72h1.28V2h1V3.15h-1V5.33c0,.3.16.53.44.53a.65.65,0,0,0,.44-.14l.27,1A1.57,1.57,0,0,1,25,7a1.21,1.21,0,0,1-1.39-1A1.38,1.38,0,0,1,23.6,5.67Z"/><path class="cls-1" d="M30.25,6.87V3.93c0-.67-.35-.88-.9-.88a1.42,1.42,0,0,0-1.1.57V6.87H27V.2h1.27V2.67A2.24,2.24,0,0,1,30,1.92a1.39,1.39,0,0,1,1.56,1.19,1.22,1.22,0,0,1,0,.33V6.87Z"/><path class="cls-1" d="M32.72,4.45a2.46,2.46,0,0,1,2.39-2.53h.11a2.41,2.41,0,0,1,2.43,2.41,2.09,2.09,0,0,1,0,.25v.28H34.05A1.3,1.3,0,0,0,35.44,6a2.09,2.09,0,0,0,1.29-.48l.56.82a3,3,0,0,1-2,.67A2.45,2.45,0,0,1,32.72,4.7Zm2.5-1.52A1.17,1.17,0,0,0,34,4h2.38a1.12,1.12,0,0,0-1.16-1.08Z"/><path class="cls-1" d="M38.81,6.87V2h1.27v.66a2.08,2.08,0,0,1,1.54-.78V3.16a2,2,0,0,0-.35,0,1.63,1.63,0,0,0-1.19.55V6.87Z"/><path class="cls-1" d="M49.71,6.87l-1-3.29-1,3.29h-1.4L44.84,2h1.32l.9,3.25L48.12,2h1.13l1.06,3.25L51.21,2h1.32L51.06,6.87Z"/><path class="cls-1" d="M53.28.76a.76.76,0,1,1,.76.76h0A.77.77,0,0,1,53.28.76Zm.13,6.11V2h1.27V6.87Z"/><path class="cls-1" d="M56.44,5.67V3.15h-.8V2h.8V.72h1.28V2h1V3.15h-1V5.33c0,.3.16.53.44.53a.65.65,0,0,0,.44-.14l.27,1A1.6,1.6,0,0,1,57.81,7a1.22,1.22,0,0,1-1.37-1A1.61,1.61,0,0,1,56.44,5.67Z"/><path class="cls-1" d="M63.09,6.87V3.93c0-.67-.35-.88-.9-.88a1.42,1.42,0,0,0-1.1.57V6.87H59.82V.2h1.27V2.67a2.21,2.21,0,0,1,1.7-.75,1.39,1.39,0,0,1,1.56,1.19,1.22,1.22,0,0,1,0,.33V6.87Z"/><polygon class="cls-1" points="48.33 11.08 44.88 11.08 42.03 18.3 39.33 11.16 35.86 11.16 33.59 24.58 37.07 24.58 38.22 16.85 40.42 22.41 41.25 24.59 42.63 24.59 45.88 16.77 46.86 24.59 50.34 24.59 48.33 11.08"/><path class="cls-1" d="M30.31,11.11a2,2,0,0,0-2.06,1.94v9.57a2.06,2.06,0,0,0,4.12,0V13.07a2,2,0,0,0-2-2Z"/><polygon class="cls-1" points="59.95 11.15 59.95 11.14 56.15 11.15 56.15 11.15 56.15 11.15 51 24.57 54.68 24.57 55.59 22.23 60.41 22.23 61.28 24.57 65 24.57 59.95 11.15"/><polygon class="cls-1" points="8.95 11.18 8.96 11.17 5.15 11.18 0 24.6 0 24.6 0 24.6 3.68 24.6 3.68 24.6 3.68 24.6 4.6 22.26 9.42 22.26 10.28 24.6 14 24.6 8.95 11.18"/><path class="cls-1" d="M24.89,17.11H20.37v2.53H23.1a2.48,2.48,0,0,1-.63,1.44,2.72,2.72,0,0,1-2,.72,3,3,0,0,1-2.27-.9,4.19,4.19,0,0,1-1.15-3,4.65,4.65,0,0,1,.32-1.69,3,3,0,0,1,3-2.21,2.92,2.92,0,0,1,1.82.61,3.61,3.61,0,0,1,.93,1.32l3.14-1.29a6.67,6.67,0,0,0-1.91-2.43A6.34,6.34,0,0,0,20.52,11a6.6,6.6,0,0,0-5.26,2.16,6.83,6.83,0,0,0-1.67,4.67A6.81,6.81,0,0,0,15,22.21a6.47,6.47,0,0,0,5.4,2.39,7.83,7.83,0,0,0,1.67-.18h0a6.2,6.2,0,0,0,2.06-.85,6,6,0,0,0,2.35-3.07A10.26,10.26,0,0,0,27,17.11Z"/></g></g></g></g></svg>