<svg xmlns="http://www.w3.org/2000/svg" viewBox="0 0 65 24.68"><g data-name="Слой 2"><g data-name="Слой 1"><g data-name="Слой 2"><path d="M2 6.87V1.45H0V.2h5.33v1.25H3.39v5.42zm3.17-2.42a2.44 2.44 0 0 1 2.37-2.53h.18a2.45 2.45 0 0 1 2.56 2.34v.19A2.45 2.45 0 0 1 8 7h-.28a2.45 2.45 0 0 1-2.55-2.34zm3.83 0a1.24 1.24 0 1 0-2.47-.22.81.81 0 0 0 0 .22A1.25 1.25 0 1 0 9 4.84a1.27 1.27 0 0 0 0-.39zm2.37 3.66l.57-.92a1.94 1.94 0 0 0 1.51.6 1.18 1.18 0 0 0 1.32-1 1.34 1.34 0 0 0 0-.2v-.51a1.89 1.89 0 0 1-1.49.76c-1.21 0-2.13-.85-2.13-2.46A2.16 2.16 0 0 1 13 1.94h.29a1.85 1.85 0 0 1 1.49.74V2h1.28v4.5c0 1.84-1.42 2.29-2.61 2.29a2.92 2.92 0 0 1-2.08-.68zm3.41-2.95V3.6a1.36 1.36 0 0 0-1.09-.6 1.21 1.21 0 0 0-1.23 1.17.81.81 0 0 0 0 .16 1.2 1.2 0 0 0 1 1.36h.2a1.41 1.41 0 0 0 1.12-.53zm2.48-.71a2.46 2.46 0 0 1 2.39-2.53h.11a2.41 2.41 0 0 1 2.43 2.41 2.09 2.09 0 0 1 0 .25v.28h-3.6A1.31 1.31 0 0 0 20 6a2.09 2.09 0 0 0 1.29-.48l.56.82a3 3 0 0 1-2 .67 2.45 2.45 0 0 1-2.59-2.3zm2.5-1.52A1.16 1.16 0 0 0 18.57 4H21a1.13 1.13 0 0 0-1.15-1.09zm3.84 2.74V3.15h-.8V2h.8V.72h1.28V2h1v1.15h-1v2.18c0 .3.16.53.44.53a.65.65 0 0 0 .44-.14l.27 1A1.57 1.57 0 0 1 25 7a1.21 1.21 0 0 1-1.39-1 1.38 1.38 0 0 1-.01-.33zm6.65 1.2V3.93c0-.67-.35-.88-.9-.88a1.42 1.42 0 0 0-1.1.57v3.25H27V.2h1.27v2.47A2.24 2.24 0 0 1 30 1.92a1.39 1.39 0 0 1 1.56 1.19 1.22 1.22 0 0 1 0 .33v3.43zm2.47-2.42a2.46 2.46 0 0 1 2.39-2.53h.11a2.41 2.41 0 0 1 2.43 2.41 2.09 2.09 0 0 1 0 .25v.28h-3.6A1.3 1.3 0 0 0 35.44 6a2.09 2.09 0 0 0 1.29-.48l.56.82a3 3 0 0 1-2 .67 2.45 2.45 0 0 1-2.57-2.31zm2.5-1.52A1.17 1.17 0 0 0 34 4h2.38a1.12 1.12 0 0 0-1.16-1.08zm3.59 3.94V2h1.27v.66a2.08 2.08 0 0 1 1.54-.78v1.28a2 2 0 0 0-.35 0 1.63 1.63 0 0 0-1.19.55v3.16zm10.9 0l-1-3.29-1 3.29h-1.4L44.84 2h1.32l.9 3.25L48.12 2h1.13l1.06 3.25.9-3.25h1.32l-1.47 4.87zM53.28.76a.76.76 0 1 1 .76.76.77.77 0 0 1-.76-.76zm.13 6.11V2h1.27v4.87zm3.03-1.2V3.15h-.8V2h.8V.72h1.28V2h1v1.15h-1v2.18c0 .3.16.53.44.53a.65.65 0 0 0 .44-.14l.27 1a1.6 1.6 0 0 1-1.06.28 1.22 1.22 0 0 1-1.37-1 1.61 1.61 0 0 1 0-.33zm6.65 1.2V3.93c0-.67-.35-.88-.9-.88a1.42 1.42 0 0 0-1.1.57v3.25h-1.27V.2h1.27v2.47a2.21 2.21 0 0 1 1.7-.75 1.39 1.39 0 0 1 1.56 1.19 1.22 1.22 0 0 1 0 .33v3.43zm-14.76 4.21h-3.45l-2.85 7.22-2.7-7.14h-3.47l-2.27 13.42h3.48l1.15-7.73 2.2 5.56.83 2.18h1.38l3.25-7.82.98 7.82h3.48l-2.01-13.51zm-18.02.03a2 2 0 0 0-2.06 1.94v9.57a2.06 2.06 0 0 0 4.12 0v-9.55a2 2 0 0 0-2-2zm29.64.04v-.01l-3.8.01L51 24.57h3.68l.91-2.34h4.82l.87 2.34H65l-5.05-13.42zm-51 .03l.01-.01-3.81.01L0 24.6h3.68l.92-2.34h4.82l.86 2.34H14L8.95 11.18zm15.94 5.93h-4.52v2.53h2.73a2.48 2.48 0 0 1-.63 1.44 2.72 2.72 0 0 1-2 .72 3 3 0 0 1-2.27-.9 4.19 4.19 0 0 1-1.15-3 4.65 4.65 0 0 1 .32-1.69 3 3 0 0 1 3-2.21 2.92 2.92 0 0 1 1.82.61 3.61 3.61 0 0 1 .93 1.32l3.14-1.29a6.67 6.67 0 0 0-1.91-2.43A6.34 6.34 0 0 0 20.52 11a6.6 6.6 0 0 0-5.26 2.16 6.83 6.83 0 0 0-1.67 4.67A6.81 6.81 0 0 0 15 22.21a6.47 6.47 0 0 0 5.4 2.39 7.83 7.83 0 0 0 1.67-.18 6.2 6.2 0 0 0 2.06-.85 6 6 0 0 0 2.35-3.07 10.26 10.26 0 0 0 .52-3.39z" fill="#fff" data-name="Layer 5"/></g></g></g></svg>