<svg xmlns="http://www.w3.org/2000/svg" viewBox="0 0 486.9 69.79"><g data-name="Слой 2"><path d="M475.67 4.87a5.57 5.57 0 0 1 5.56 5.57v24.44h5.67V10.44A10.45 10.45 0 0 0 476.46 0h-15.7v4.87zM163.36 59.33a5.57 5.57 0 0 1-5.56 5.56h-9.44a5.57 5.57 0 0 1-5.57-5.56V34.89h-5.67v24.44a10.45 10.45 0 0 0 10.44 10.43h11A10.45 10.45 0 0 0 169 59.33V34.89h-5.67zm-109.43 0V34.89h-5.67v24.44A10.45 10.45 0 0 0 58.7 69.76h15.71v-4.87H59.5a5.57 5.57 0 0 1-5.57-5.56zm274.57 0V34.89h-5.67v24.44a10.45 10.45 0 0 0 10.44 10.43H349v-4.87h-14.93a5.57 5.57 0 0 1-5.57-5.56zm43.5 5.56a5.57 5.57 0 0 1-5.57-5.56V34.89h-5.67v24.44a10.45 10.45 0 0 0 10.44 10.43h15.71v-4.87zM274.66 34a6 6 0 0 0-5.8 3.78v.05L265 49.36 261.51 60a.28.28 0 0 1-.3.2.29.29 0 0 1-.31-.2l-3.51-10.65-3.82-11.57v-.05a6 6 0 0 0-5.8-3.78c-3.13 0-6.51 1.88-6.51 6v29.8h5.67V40c0-.76.25-1.14.73-1.14h.17a.3.3 0 0 1 .11.06h.07l.08.1a1.94 1.94 0 0 1 .1.17l.08.17.06.14.25.74 7.85 23.24a5.17 5.17 0 0 0 4.8 2.8A5.15 5.15 0 0 0 266 63.5l7.86-23.24.24-.74.06-.14a1.31 1.31 0 0 1 .09-.17.55.55 0 0 1 .1-.17.39.39 0 0 1 .08-.1h.06a.34.34 0 0 1 .12-.06h.16c.49 0 .73.38.73 1.14v29.8h5.67V40c0-4.17-3.37-6-6.51-6zm24.49.89h5.67v34.88h-5.67zm-179.72 11.7v-.53a13 13 0 0 0-.43-3.72 10.62 10.62 0 0 0-5.65-6.5 10.52 10.52 0 0 0-4.35-1H96.89a10.53 10.53 0 0 0-7.6 3.28c-2.84 3-2.84 6.64-2.84 10.14v10.56a10.6 10.6 0 0 0 8.1 10.67 15.2 15.2 0 0 0 3.62.27h9.07c2.57 0 5.27-.22 7.66-1.86a10.57 10.57 0 0 0 4.46-7.41 20 20 0 0 0 .08-2.53zm-27.32 4v-5.2a5.7 5.7 0 0 1 5.61-5.62h9.11a9.4 9.4 0 0 1 3.09.29 5.4 5.4 0 0 1 1.38.69L92.17 59.89a14.48 14.48 0 0 1 0-1.63V53.2c-.04-.88-.05-1.76-.06-2.63zm21.7 5.29c.09 2.58.19 5.51-1.48 7.18-1.73 1.89-4 1.88-6.6 1.85h-6.94a9.1 9.1 0 0 1-2.57-.2 5.54 5.54 0 0 1-1.37-.6l18.91-18.91a.66.66 0 0 1 0 .14v8.84c.01.52.03 1.09.05 1.68zM21.64 34.9H10.43A10.45 10.45 0 0 0 0 45.34v14a10.45 10.45 0 0 0 10.43 10.44h21.64V64.9H11.23a5.58 5.58 0 0 1-5.57-5.56v-14a5.58 5.58 0 0 1 5.57-5.58h9.61a5.58 5.58 0 0 1 5.57 5.58v3.51h5.66v-3.51A10.45 10.45 0 0 0 21.64 34.9zm198.65 10.41a10.55 10.55 0 0 0-.06-1.13.77.77 0 0 1 0-.15c-.05-.33-.1-.67-.17-1v-.09a8.19 8.19 0 0 0-.28-1l-.06-.14c-.07-.2-.13-.39-.21-.58l-.06-.14-.1-.18v-.09c-.15-.31-.32-.61-.5-.91l-.25-.38a10.75 10.75 0 0 0-.66-.89l-.17-.21c-.17-.19-.34-.38-.52-.56s-.21-.18-.32-.28l-.23-.2a10.55 10.55 0 0 0-2.26-1.47l-.22-.11a10.48 10.48 0 0 0-2.63-.78h-.25a10.85 10.85 0 0 0-1.4-.1h-26.36v4.87h4.27v30h22a9.33 9.33 0 0 0 1.4-.11h.25a10.5 10.5 0 0 0 2.63-.79l.22-.1a11 11 0 0 0 2.26-1.47l.23-.21c.11-.09.22-.18.32-.28s.35-.37.52-.56.11-.14.17-.2a9.43 9.43 0 0 0 .66-.9c.09-.12.17-.25.25-.38a10 10 0 0 0 .5-.91v-.08c0-.07.07-.12.1-.19l.06-.13c.08-.19.14-.39.21-.58l.06-.14a8.73 8.73 0 0 0 .28-1v-.09c.07-.33.12-.66.17-1a.68.68 0 0 1 0-.14 10.55 10.55 0 0 0 .06-1.13v-14zm-5.65 7.37v6.65a5.58 5.58 0 0 1-4.42 5.44h-.11a5.69 5.69 0 0 1-1 .1h-15.59V39.76h15.56a5.69 5.69 0 0 1 1 .1h.11a5.57 5.57 0 0 1 4.42 5.44v6.65zm184.81-21.97h-2.4l-2.28-7-2.26 7.05h-2.39l-3.24-11h2.83l1.85 6.92 2.05-6.92h2.52l2.11 6.92 1.88-6.92h2.41zm7.62-10.96h6.5v2.35h-4V24h3.52v2.35h-3.52v2h4.15v2.35h-6.66zm12.14.03c.61 0 2.12-.09 3.31-.09 2.62 0 3.68 1.2 3.68 2.72a2.67 2.67 0 0 1-1.2 2.44 2.51 2.51 0 0 1 1.57 2.51c0 2.3-1.79 3.38-4.17 3.38-1.05 0-2.5 0-3.14-.09zm2.5 2.32v2h.83c.64 0 1.16-.27 1.16-1.07s-.6-1-1.21-1a6.33 6.33 0 0 0-.78.07zm0 4.18v2a2.81 2.81 0 0 0 .85.09c1 0 1.45-.42 1.45-1.16s-.51-1-1.33-1zm-33.42 12.38h3.46c4.38 0 6.15 2.52 6.15 5.43 0 3.07-2.1 5.61-6.28 5.61h-3.33zm2.5 2.35v6.26a8.92 8.92 0 0 0 .91 0c2.16 0 3.54-1.18 3.54-3.26S393.75 41 391.72 41a6.12 6.12 0 0 0-.93 0zm12.28-2.35h6.49V41h-4v1.92h3.52v2.35h-3.52v2h4.15v2.35h-6.65zm11.58 2.97a3.26 3.26 0 0 1 3.54-3.16 4.35 4.35 0 0 1 3.22 1.2l-1.34 1.88a2.12 2.12 0 0 0-1.66-.73c-.69 0-1.1.31-1.1.81 0 1.82 4.57 1.38 4.57 4.95 0 1.91-1.64 3.22-3.75 3.22-1.48 0-3.18-.62-3.71-1.8l1.42-1.7a3.11 3.11 0 0 0 2.35 1.16c.66 0 1-.33 1-.85.03-1.61-4.54-1.44-4.54-4.98zm12.56-2.97h2.5v11h-2.5zm13.11 4.71H445v4.88a6.32 6.32 0 0 1-4.1 1.55c-3.76 0-5.87-2.25-5.87-5.66a5.71 5.71 0 0 1 9.14-4.53l-1 2a3.37 3.37 0 0 0-2.24-.81 3 3 0 0 0-3.2 3.32 3.08 3.08 0 0 0 3.24 3.32 3.21 3.21 0 0 0 1.73-.55v-1.17h-2.34zm17.55 6.25l-5.2-6.62v6.58h-2.34v-11h2l5.2 6.6v-6.6h2.35v11z" fill="#fff" data-name="Слой 1"/></g></svg>