<svg xmlns="http://www.w3.org/2000/svg" viewBox="0 0 545.59 69.79"><defs><style>.cls-1{fill:#fff;}</style></defs><title>cm_logo_1</title><g id="Слой_2" data-name="Слой 2"><g id="Слой_1-2" data-name="Слой 1"><path class="cls-1" d="M534.35,4.87a5.58,5.58,0,0,1,5.57,5.57V34.88h5.67V10.44A10.45,10.45,0,0,0,535.15,0H519.44V4.87Z"/><path class="cls-1" d="M163.36,59.33a5.57,5.57,0,0,1-5.56,5.56h-9.44a5.57,5.57,0,0,1-5.57-5.56V34.89h-5.67V59.33a10.45,10.45,0,0,0,10.44,10.43h11A10.45,10.45,0,0,0,169,59.33V34.89h-5.67Z"/><path class="cls-1" d="M53.93,59.33V34.89H48.26V59.33A10.45,10.45,0,0,0,58.7,69.76H74.41V64.89H59.5A5.57,5.57,0,0,1,53.93,59.33Z"/><path class="cls-1" d="M328.5,59.33V34.89h-5.67V59.33a10.45,10.45,0,0,0,10.44,10.43H349V64.89H334.07A5.57,5.57,0,0,1,328.5,59.33Z"/><path class="cls-1" d="M372,64.89a5.57,5.57,0,0,1-5.57-5.56V34.89h-5.67V59.33a10.45,10.45,0,0,0,10.44,10.43h15.71V64.89Z"/><path class="cls-1" d="M274.66,34a6,6,0,0,0-5.8,3.78v.05h0L265,49.36,261.51,60a.28.28,0,0,1-.3.2.29.29,0,0,1-.31-.2l-3.51-10.65-3.82-11.57h0v-.05a6,6,0,0,0-5.8-3.78c-3.13,0-6.51,1.88-6.51,6v29.8h5.67V40c0-.76.25-1.14.73-1.14h.17a.3.3,0,0,1,.11.06l.07,0,.08.1a1.94,1.94,0,0,1,.1.17l.08.17.06.14.25.74,7.85,23.24a5.17,5.17,0,0,0,4.8,2.8h0A5.15,5.15,0,0,0,266,63.5l7.86-23.24.24-.74.06-.14a1.31,1.31,0,0,1,.09-.17.55.55,0,0,1,.1-.17.39.39,0,0,1,.08-.1l.06,0a.34.34,0,0,1,.12-.06h.16c.49,0,.73.38.73,1.14v29.8h5.67V40C281.17,35.83,277.8,34,274.66,34Z"/><rect class="cls-1" x="299.15" y="34.89" width="5.67" height="34.88"/><path class="cls-1" d="M119.43,46.59v-.53h0a13,13,0,0,0-.43-3.72,10.62,10.62,0,0,0-5.65-6.5,10.52,10.52,0,0,0-4.35-1H96.89a10.53,10.53,0,0,0-7.6,3.28c-2.84,3-2.84,6.64-2.84,10.14V58.82a10.6,10.6,0,0,0,8.1,10.67,15.2,15.2,0,0,0,3.62.27h6.08l1.47,0h1.52c2.57,0,5.27-.22,7.66-1.86a10.57,10.57,0,0,0,4.46-7.41,20,20,0,0,0,.08-2.53Zm-27.32,4h0c0-1.61,0-3.44,0-5.2a5.7,5.7,0,0,1,5.61-5.62c.93,0,1.86,0,2.8,0l2.71,0h3.6a9.4,9.4,0,0,1,3.09.29,5.4,5.4,0,0,1,1.38.69L92.17,59.89a14.48,14.48,0,0,1,0-1.63V53.2C92.13,52.32,92.12,51.44,92.11,50.57Zm21.7,5.29c.09,2.58.19,5.51-1.48,7.18-1.73,1.89-4,1.88-6.6,1.85H98.79a9.1,9.1,0,0,1-2.57-.2,5.54,5.54,0,0,1-1.37-.6l18.91-18.91a.66.66,0,0,1,0,.14v8.84C113.77,54.7,113.79,55.27,113.81,55.86Z"/><path class="cls-1" d="M21.64,34.9H10.43A10.45,10.45,0,0,0,0,45.34v14A10.45,10.45,0,0,0,10.43,69.78H32.07V64.9H11.23a5.58,5.58,0,0,1-5.57-5.56v-14a5.58,5.58,0,0,1,5.57-5.58h9.61a5.58,5.58,0,0,1,5.57,5.58v3.51h5.66V45.34A10.45,10.45,0,0,0,21.64,34.9Z"/><path class="cls-1" d="M220.29,45.31a10.55,10.55,0,0,0-.06-1.13.77.77,0,0,1,0-.15c-.05-.33-.1-.67-.17-1l0-.09a8.19,8.19,0,0,0-.28-1l-.06-.14c-.07-.2-.13-.39-.21-.58l-.06-.14-.1-.18,0-.09c-.15-.31-.32-.61-.5-.91l-.25-.38a10.75,10.75,0,0,0-.66-.89l-.17-.21c-.17-.19-.34-.38-.52-.56s-.21-.18-.32-.28l-.23-.2a10.55,10.55,0,0,0-2.26-1.47l-.22-.11a10.48,10.48,0,0,0-2.63-.78l-.25,0a10.85,10.85,0,0,0-1.4-.1H183.58v4.87h4.27v30h22a9.33,9.33,0,0,0,1.4-.11l.25,0a10.5,10.5,0,0,0,2.63-.79l.22-.1a11,11,0,0,0,2.26-1.47l.23-.21c.11-.09.22-.18.32-.28s.35-.37.52-.56.11-.14.17-.2a9.43,9.43,0,0,0,.66-.9c.09-.12.17-.25.25-.38a10,10,0,0,0,.5-.91l0-.08c0-.07.07-.12.1-.19l.06-.13c.08-.19.14-.39.21-.58l.06-.14a8.73,8.73,0,0,0,.28-1l0-.09c.07-.33.12-.66.17-1a.68.68,0,0,1,0-.14,10.55,10.55,0,0,0,.06-1.13h0v-14h0Zm-5.65,7.37h0c0,1.51,0,3.08,0,4.51v2.14a5.58,5.58,0,0,1-4.42,5.44l-.11,0a5.69,5.69,0,0,1-1,.1H193.52V39.76h15.56a5.69,5.69,0,0,1,1,.1l.11,0a5.57,5.57,0,0,1,4.42,5.44v2.14c0,1.42,0,3,0,4.51h0Z"/><path class="cls-1" d="M388.29,19.75h.22c.58,0,2.52-.05,3.24-.05,4.38,0,6.15,2.52,6.15,5.44s-2.1,5.6-6.28,5.6c-.58,0-2,0-3.07,0h-.26Zm2.5,2.35v6.26a8.92,8.92,0,0,0,.91,0c2.16,0,3.54-1.17,3.54-3.25s-1.49-3.09-3.52-3.09A6.12,6.12,0,0,0,390.79,22.1Z"/><path class="cls-1" d="M403.22,19.75h2.51v11h-2.51Z"/><path class="cls-1" d="M416.34,24.46H421v4.89a6.32,6.32,0,0,1-4.1,1.55c-3.76,0-5.87-2.26-5.87-5.67a5.7,5.7,0,0,1,9.14-4.52l-1.05,2a3.33,3.33,0,0,0-2.24-.81,3,3,0,0,0-3.19,3.32,3.18,3.18,0,0,0,5,2.77V26.81h-2.33Z"/><path class="cls-1" d="M426.5,19.75H429v11H426.5Z"/><path class="cls-1" d="M433.86,19.75h9.08V22.1h-3.29v8.61h-2.51V22.1h-3.28Z"/><path class="cls-1" d="M450.78,19.75H453l4.55,11H454.9l-.91-2.3h-4.34l-.91,2.3h-2.52Zm-.19,6.31h2.46L451.83,23Z"/><path class="cls-1" d="M462.11,19.75h2.51v8.61h4.46v2.35h-7Z"/><path class="cls-1" d="M388.29,49.62v-11l3.35,0c3.33,0,4.43,1.73,4.43,3.63A3.75,3.75,0,0,1,392,45.94a11.34,11.34,0,0,1-1.22,0v3.73Zm2.5-8.61v2.5a8.89,8.89,0,0,0,1.15.08,1.31,1.31,0,0,0,1.47-1.35c0-1-.63-1.27-1.52-1.27C391.56,41,391.31,41,390.79,41Z"/><path class="cls-1" d="M401.23,49.62v-11l3.73,0c3,0,4.06,1.48,4.06,3.5a3.3,3.3,0,0,1-1.85,3.16l3.19,4.33h-3l-2.66-3.84h-.92v3.84ZM403.74,41v2.42h.91c1,0,1.7-.34,1.7-1.27,0-.61-.31-1.19-1.51-1.19C404.46,41,404.26,41,403.74,41Z"/><path class="cls-1" d="M419.94,38.47a5.46,5.46,0,0,1,5.83,5.67,5.56,5.56,0,0,1-5.83,5.66,5.46,5.46,0,0,1-5.82-5.66A5.55,5.55,0,0,1,419.94,38.47Zm0,9a3,3,0,0,0,3.16-3.32,3.16,3.16,0,1,0-6.32,0A3.21,3.21,0,0,0,419.94,47.46Z"/><path class="cls-1" d="M430.93,38.66h.22c.58,0,2.52,0,3.24,0,4.38,0,6.15,2.52,6.15,5.43,0,3.07-2.09,5.61-6.27,5.61-.58,0-2,0-3.07,0h-.27ZM433.44,41v6.26a8.63,8.63,0,0,0,.9,0c2.16,0,3.54-1.18,3.54-3.26S436.39,41,434.36,41A5.93,5.93,0,0,0,433.44,41Z"/><path class="cls-1" d="M454.8,45.09c0,3.35-2.13,4.71-4.47,4.71-2.82,0-4.78-1.61-4.78-4.82V38.66h2.51v5.79c0,1.71.51,3,2.27,3,1.52,0,2-1.12,2-2.87V38.66h2.5Z"/><path class="cls-1" d="M469.13,48.54a5.08,5.08,0,0,1-3.57,1.26,5.41,5.41,0,0,1-5.75-5.66,5.34,5.34,0,0,1,5.73-5.67,4.91,4.91,0,0,1,3.35,1.14l-1.11,1.88a3.89,3.89,0,0,0-2.24-.67,3,3,0,0,0-3.07,3.32,3.18,3.18,0,0,0,3.32,3.32,4.05,4.05,0,0,0,2.38-.8Z"/><path class="cls-1" d="M472.73,38.66h9.08V41h-3.29v8.61H476V41h-3.29Z"/><path class="cls-1" d="M486.66,38.66h2.51v11h-2.51Z"/><path class="cls-1" d="M500.31,38.47a5.46,5.46,0,0,1,5.82,5.67,5.55,5.55,0,0,1-5.82,5.66,5.46,5.46,0,0,1-5.82-5.66A5.55,5.55,0,0,1,500.31,38.47Zm0,9a3,3,0,0,0,3.16-3.32,3.16,3.16,0,1,0-6.32,0A3.21,3.21,0,0,0,500.31,47.46Z"/><path class="cls-1" d="M518.85,49.62,513.65,43v6.58H511.3v-11h2l5.2,6.6v-6.6h2.35v11Z"/></g></g></svg>