<svg xmlns="http://www.w3.org/2000/svg" viewBox="0 0 231.6 231.6"><defs><style>.cls-1{fill:#fff;}.cls-2{fill:#ff6f61;}</style></defs><title>cta_default</title><g id="Слой_2" data-name="Слой 2"><g id="Слой_1-2" data-name="Слой 1"><path class="cls-1" d="M21.39,95.84A6.22,6.22,0,0,1,29,90.9a6.32,6.32,0,1,1-2.45,12.39A6.25,6.25,0,0,1,21.39,95.84Zm11.76,2.33a5.26,5.26,0,0,0-4.4-6.25,5.28,5.28,0,1,0-2,10.35A5.3,5.3,0,0,0,33.15,98.17Z"/><path class="cls-1" d="M27,77.78l2.88-6.33.85.39-2.47,5.42L32.09,79c.24-.7.57-1.5.79-2,1.24-2.72,3.16-3.55,5.19-2.62,2.36,1.07,2.81,3.3,1.57,6-.47,1-.92,1.87-1.23,2.54Zm6,1.64,5,2.29c.27-.53.57-1.12.87-1.77,1-2.23.57-3.8-1.14-4.58-1.52-.69-3-.08-4,2.12A19.59,19.59,0,0,0,32.94,79.42Z"/><path class="cls-1" d="M51.29,59.3a5.78,5.78,0,0,1-1.24,4c-2.24,3-5.82,3.53-9,1.18-2.89-2.18-3.74-5.78-1.46-8.82a5.78,5.78,0,0,1,3.24-2.34l.31.82a5.14,5.14,0,0,0-2.79,2.07c-1.84,2.44-1.22,5.52,1.33,7.43a5.17,5.17,0,0,0,7.63-1,5.42,5.42,0,0,0,1.11-3.46Z"/><path class="cls-1" d="M60.5,48.13c.6,2,.59,3.25-.36,4.06a2.43,2.43,0,0,1-1.32.59l-.28-.88a1.68,1.68,0,0,0,1-.4c.63-.54.57-1.43.32-2.36l-.15-.53L49,45.11l.85-.73,9.54,3.16-2.71-9,.77-.65Z"/><path class="cls-1" d="M70.29,43l1.19-.64c.15-.83,0-3.9-2.4-9.09L68,31l6.26-3.35L79.76,38l1.51-.81,1.58,3-.82.44-1.14-2.12-9.33,5,1.13,2.13-.82.44Zm2.16-1.16,6.44-3.45L73.83,29l-4.54,2.43,1,2.1C72.4,38.25,72.6,41.15,72.45,41.88Z"/><path class="cls-1" d="M90.41,34.75,87.32,22.53l1-.24L91,32.94,96.5,20.21l.86-.22,3.09,12.22-1,.24L96.79,21.8,91.27,34.53Z"/><path class="cls-1" d="M111.15,18.27h1l5,7,5-6.85h1L122.89,31l-1,0,.15-11-4.93,6.73H117l-4.84-6.81-.15,11h-1Z"/><path class="cls-1" d="M168,34.8l-6.7-4-6,10-.86-.51L161,29.47l8.4,5-6.47,10.82-.85-.51Z"/><path class="cls-1" d="M171.28,52,180,42.86c.51.48,1.73,1.6,2.25,2.1,2.52,2.42,1.9,4.49.61,5.84s-3.64,1.85-5.9-.32c-.43-.41-1-1-1.46-1.5L172,52.63Zm8.78-7.73-3.91,4.08c.47.52.9,1,1.42,1.48,1.65,1.58,3.34,1.53,4.53.29s1.27-2.73-.44-4.37C181.25,45.31,180.5,44.62,180.06,44.22Z"/><path class="cls-1" d="M196.43,61.85a6.46,6.46,0,1,1-8.86-1.77A6.21,6.21,0,0,1,196.43,61.85Zm-10.05,6.54A5.54,5.54,0,1,0,188.13,61,5.32,5.32,0,0,0,186.38,68.39Z"/><path class="cls-1" d="M205,78.67l2.37,6.55-.88.32-2-5.62L200,81.55l1.85,5.11-.88.32-1.85-5.11-4.69,1.69,2.09,5.79-.87.32L193.18,83Z"/><path class="cls-1" d="M210.47,97.61l.14,1-12.48,1.73-.14-1ZM205,101.16l-5.73,7.06-.17-1.26,5.67-6.95,6.78,5,.17,1.19Z"/><path class="cls-1" d="M212,116.29l-.75,10.29-.94-.07.34-4.65L199,121l.08-1,11.62.85.35-4.65Z"/><path class="cls-1" d="M194,147.13a.69.69,0,0,1-.86.36.7.7,0,0,1-.4-.9.69.69,0,0,1,.94-.36A.68.68,0,0,1,194,147.13Zm9.48,4.5a3.34,3.34,0,0,0-.25-3.12l.77-.29a4,4,0,0,1,.31,3.85c-.88,2.07-2.67,2.69-4.19,2.05-3.08-1.32-1.52-4.62-3.77-5.58a3.85,3.85,0,0,0-.57-.17l.29-.79a4.2,4.2,0,0,1,.75.22c2.45,1,1,4.25,3.5,5.33A2.41,2.41,0,0,0,203.52,151.63Z"/><path class="cls-2" d="M115.8,231.6A115.8,115.8,0,1,1,231.6,115.8,115.93,115.93,0,0,1,115.8,231.6ZM115.8.75A115.05,115.05,0,1,0,230.85,115.8,115.18,115.18,0,0,0,115.8.75Z"/><rect class="cls-1" x="115.43" y="96.46" width="0.75" height="36.42"/><rect class="cls-1" x="97.59" y="114.3" width="36.42" height="0.75"/></g></g></svg>