<svg xmlns="http://www.w3.org/2000/svg" viewBox="0 0 230.85 230.85"><defs><style>.cls-2{fill:#fff}</style></defs><g id="Слой_2" data-name="Слой 2"><g id="Слой_1-2" data-name="Слой 1"><circle cx="115.43" cy="115.43" r="115.43" fill="#ff6f61"/><path class="cls-2" d="M21 95.47a6.22 6.22 0 0 1 7.56-5 6.32 6.32 0 1 1-2.45 12.4 6.24 6.24 0 0 1-5.11-7.4zm11.76 2.32a5.25 5.25 0 0 0-4.4-6.24 5.28 5.28 0 1 0-2.05 10.35 5.32 5.32 0 0 0 6.47-4.11zM26.57 77.4l2.88-6.32.86.39-2.48 5.42 3.89 1.77c.24-.7.56-1.5.78-2 1.24-2.72 3.16-3.54 5.19-2.62 2.36 1.08 2.81 3.3 1.57 6-.46 1-.92 1.88-1.22 2.55zm6 1.65l5 2.29c.26-.53.57-1.12.87-1.78 1-2.23.56-3.8-1.14-4.58-1.52-.69-3-.07-4 2.12a17.64 17.64 0 0 0-.73 1.95zm18.34-20.12a5.68 5.68 0 0 1-1.23 4c-2.25 3-5.82 3.54-9 1.18-2.9-2.17-3.75-5.78-1.47-8.82a5.86 5.86 0 0 1 3.24-2.34l.31.82A5.24 5.24 0 0 0 40 55.79c-1.83 2.45-1.22 5.52 1.33 7.44a5.17 5.17 0 0 0 7.63-1 5.48 5.48 0 0 0 1.12-3.46zm9.22-11.17c.6 2 .58 3.24-.36 4.05a2.39 2.39 0 0 1-1.32.59l-.28-.88a1.72 1.72 0 0 0 1-.39c.63-.54.57-1.44.32-2.36l-.15-.54-10.67-3.49.85-.73 9.53 3.15-2.71-9 .77-.66zm9.78-5.1L71.1 42c.15-.84 0-3.9-2.39-9.09l-1.08-2.28 6.25-3.35 5.51 10.28 1.5-.81 1.59 3-.83.44-1.14-2.13-9.33 5 1.14 2.12-.83.45zm2.16-1.15l6.44-3.45-5.06-9.46-4.54 2.4 1 2.1c2.09 4.78 2.32 7.67 2.16 8.41zM90 34.37l-3-12.22 1-.24 2.7 10.65 5.53-12.73.85-.22 3.09 12.22-1 .25-2.75-10.65-5.53 12.73zm20.77-16.48h1l5 7 5-6.84h1l-.16 12.59h-1l.14-11-4.93 6.74h-.16l-4.84-6.81-.14 11h-1zm56.88 16.53l-6.71-4-6 10-.85-.51 6.47-10.81 8.41 5-6.47 10.84-.85-.51zm3.25 17.15l8.72-9.09c.51.49 1.73 1.61 2.25 2.11 2.51 2.41 1.9 4.49.6 5.84s-3.64 1.84-5.9-.32c-.43-.42-1-1-1.45-1.5l-3.5 3.65zm8.79-7.73l-3.91 4.08c.46.53.89 1 1.41 1.49 1.65 1.58 3.34 1.53 4.54.28s1.27-2.72-.45-4.37zm16.37 17.63a6.47 6.47 0 1 1-8.87-1.77 6.22 6.22 0 0 1 8.87 1.77zM186 68a5.53 5.53 0 1 0 1.75-7.43A5.25 5.25 0 0 0 186 68zm18.66 10.29l2.34 6.55-.88.32-2-5.62-4.52 1.64 1.84 5.11-.88.32-1.84-5.12-4.72 1.7 2.12 5.81-.88.32-2.43-6.72zm5.44 18.94l.13 1-12.48 1.77-.13-1zm-5.53 3.55l-5.72 7.07-.18-1.27 5.67-7 6.79 5 .17 1.2zm7.06 15.14l-.75 10.28-.93-.07.34-4.65-11.63-.85.07-1 11.63.85.34-4.65zm-17.97 30.83a.67.67 0 0 1-.86.36.69.69 0 1 1 .54-1.26.67.67 0 0 1 .32.9zm9.49 4.51a3.36 3.36 0 0 0-.26-3.12l.77-.3a4 4 0 0 1 .32 3.85c-.88 2.07-2.67 2.7-4.2 2.05-3.08-1.31-1.51-4.62-3.77-5.57a2.74 2.74 0 0 0-.57-.17l.3-.79a4.08 4.08 0 0 1 .74.22c2.46 1 1 4.24 3.51 5.32a2.4 2.4 0 0 0 3.16-1.49zm-88.1-55.17h.75v36.42h-.75z"/><path class="cls-2" d="M97.22 113.92h36.42v.75H97.22z"/></g></g></svg>