<svg xmlns="http://www.w3.org/2000/svg" height="273" width="839" viewBox="0 0 839 272.78"><defs><style>.cls-1{fill:none;stroke:#1d1d1f;stroke-width:2px;}.cls-2{fill:#1d1d1f;}</style></defs><title>head_main</title><g id="Слой_2" data-name="Слой 2"><g id="Слой_1-2" data-name="Слой 1"><path class="cls-1" d="M100.53,210h34.36v7h-27v21.58h24.35v7H107.93v25.4h-7.4Z"/><path class="cls-1" d="M147.51,210H155l22.88,31.24L199.79,210h7.05v60.9h-7.39V221.67L177.87,252h-1.13l-21.84-30v49h-7.39Z"/><path class="cls-1" d="M270.44,265c-4.09,4.17-11.66,6.78-19.23,6.78-18.27,0-30.88-12.35-30.88-31.32,0-17.48,11.31-31.32,30.36-31.32,7.83,0,14.18,2.18,18.53,5.92l-3.39,5.57c-4-3-8.7-4.53-15-4.53-13.23,0-22.62,9.92-22.62,24.36s9.65,24.36,23.75,24.36a24.87,24.87,0,0,0,15.57-5.39Z"/><path class="cls-1" d="M305.32,239.94h23.41v23.4c-5.4,5.4-15.23,8.44-22.8,8.44-19,0-30.88-12.35-30.88-31.32,0-17.48,11.74-31.32,29.93-31.32,8.26,0,14.18,2,19.13,5.92L320.9,221c-3.57-3.22-9.23-4.88-15-4.88-13.58,0-23,9.66-23,24.36s9.39,24.36,23.23,24.36c5.74,0,12.44-2.26,15.66-5.39V246.9H305.32Z"/><path class="cls-2" d="M5.31.26H16.09l20.8,28.45L56.72.26H66.81v60.9H56.2v-44L37,44.19H35.41L16,17.4V61.16H5.31Z"/><path class="cls-2" d="M80.82,22h10v10.7H95.7c13.31,0,17.22,6.61,17.22,13.57,0,7.48-4.7,14.88-18,14.88H80.82Zm10,18.7V52.46h3.92c5.39,0,7.57-2.26,7.57-5.83s-2.09-5.92-7.48-5.92ZM118.49,22h10V61.16h-10Z"/><path class="cls-2" d="M160.94.26h1.13c3.66,0,12.36-.26,16.8-.26,24.35,0,34.19,14,34.19,30.1,0,17.14-11.66,31.23-34.89,31.23-3.65,0-10.44-.17-16-.17h-1.22Zm10.7,10V51.15c3,.18,5.4.18,6.88.18,14.7,0,23.23-8.35,23.23-21.23,0-12.27-8.53-20.1-23.06-20.1C176.17,10,174.08,10.09,171.64,10.27Z"/><path class="cls-2" d="M229.24,2.09A5.75,5.75,0,0,1,235,7.92c0,4-2.87,6.26-5.74,6.26A6,6,0,0,1,223,7.92C223,4.35,225.84,2.09,229.24,2.09ZM224,22h10V61.16H224Z"/><path class="cls-2" d="M254.21,54.37a5.83,5.83,0,0,1-.7-2.69,4.62,4.62,0,0,1,.87-2.79c-5.92-2.35-9.31-7.39-9.31-13.13,0-7.83,6.35-14.71,16.7-14.71a18.3,18.3,0,0,1,10,2.79l11.83-2.61.35,8-6.53,1.48a14.08,14.08,0,0,1,1,5c0,7.83-6.52,14.44-16.62,14.44h-.69a4.4,4.4,0,0,0-.18,1.48,4,4,0,0,0,.53,2h.43c11.4,0,20.36,4,20.36,12.79s-9,12.78-20.36,12.78S241.5,75.43,241.5,66.47C241.5,59.94,246.72,55.94,254.21,54.37Zm7.65,16.88c6.79,0,11-1.65,11-4.78,0-2.88-3.74-4.79-11-4.79s-11.05,1.91-11.05,4.79C250.81,69.51,255.08,71.25,261.86,71.25Zm-.09-29.14c4.27,0,7.31-2.44,7.31-6.35,0-3.66-2.61-6.62-7.31-6.62-4.52,0-7.3,3-7.3,6.62S257.25,42.11,261.77,42.11Z"/><path class="cls-2" d="M296.75,2.09a5.75,5.75,0,0,1,5.74,5.83c0,4-2.87,6.26-5.74,6.26a6,6,0,0,1-6.27-6.26C290.48,4.35,293.35,2.09,296.75,2.09ZM291.53,22h10V61.16h-10Z"/><path class="cls-2" d="M313.28,11.14h10V22H335.9v9.4H323.28V45.67c0,4.27,1.39,7,4.7,7a9.73,9.73,0,0,0,6-2.26l3,7.74A18.8,18.8,0,0,1,325.46,62c-8.88,0-12.18-5.74-12.18-15.75Z"/><path class="cls-2" d="M346,24.79a29,29,0,0,1,13.83-3.74c11.57,0,15.66,5.92,15.66,16.27V61.16h-8.7V56.63c-2.09,3-6.27,5-11.57,5-7.14,0-12.27-4.44-12.27-12,0-8.62,6.35-12.71,14.27-12.71a16.16,16.16,0,0,1,8.87,2.53c.26-6.53-1.48-10.1-7.3-10.1-4.53,0-7.4,1.4-10.27,2.7Zm20.09,24.89v-4a11.13,11.13,0,0,0-6.87-1.91c-3.31,0-6.26,1.57-6.26,4.87,0,3,2.43,4.61,5.56,4.61C362.69,53.24,364.86,51.42,366.08,49.68Z"/><path class="cls-2" d="M385.74.26h10v46c0,4.44,1,6.35,3.39,6.35a7,7,0,0,0,4.09-1.56l2.09,7.65A16.1,16.1,0,0,1,395,62c-6,0-9.23-3.65-9.23-11.66Z"/><path class="cls-2" d="M433.07,61.16V.26c3.39,0,13.05-.17,17.31-.17C468.3.09,474,9.66,474,19.66c0,10.35-7.74,19.75-22.27,19.75-1.83,0-5.31,0-7.92-.26v22Zm10.7-50.89V29a75.18,75.18,0,0,0,7.57.43c6.35,0,11.31-3,11.31-9.83,0-6.35-3.92-9.48-11.22-9.48C449.25,10.09,446.64,10.18,443.77,10.27Z"/><path class="cls-2" d="M480.4,22h10v3.83a10.07,10.07,0,0,1,9-4.53c3.22,0,4.79.53,6.09,1.48l-3.56,9.4a8.36,8.36,0,0,0-5.05-1.48,6.74,6.74,0,0,0-6.44,4.18V61.16h-10Z"/><path class="cls-2" d="M530.07,21.05c13,0,21.32,8.79,21.32,20.53S543,62.12,530.07,62.12s-21.31-8.79-21.31-20.54S517.11,21.05,530.07,21.05Zm0,31.76c6.18,0,10.7-4.44,10.7-11.23,0-6.61-4.61-11.13-10.7-11.13-5.91,0-10.61,4.35-10.61,11.13C519.46,48.11,524,52.81,530.07,52.81Z"/><path class="cls-2" d="M587.32,57.07a14.73,14.73,0,0,1-11.23,4.78c-11.22,0-18.44-7.91-18.44-19.83,0-12.35,8.87-21,21.49-21A15.15,15.15,0,0,1,587.32,23V.26h10v60.9h-10Zm0-8.53V32.8a14.37,14.37,0,0,0-7.75-2.35c-5.91,0-11.22,4-11.22,11.22,0,7,4.53,10.88,9.83,10.88A13.06,13.06,0,0,0,587.32,48.54Z"/><path class="cls-2" d="M643.87,61.16h-10V56.37a15.75,15.75,0,0,1-12.53,5.75c-7.65,0-13.74-5-13.74-16.19V22h10V43.85c0,5.22,2,9,7.49,9A11.33,11.33,0,0,0,633.86,48V22h10Z"/><path class="cls-2" d="M689.37,55.33c-3.31,4.44-9.23,6.79-15.58,6.79-12.7,0-21.22-8.18-21.22-20.54,0-11.39,8.35-20.53,20.27-20.53,6.43,0,12.09,1.66,15.74,5.31l-4.7,7.92a13.13,13.13,0,0,0-9.74-3.83,10.82,10.82,0,0,0-10.87,11.13,11,11,0,0,0,11.31,11.23A13.35,13.35,0,0,0,684.67,48Z"/><path class="cls-2" d="M696.5,11.14h10V22h12.62v9.4H706.5V45.67c0,4.27,1.4,7,4.7,7a9.73,9.73,0,0,0,6-2.26l3,7.74A18.8,18.8,0,0,1,708.68,62c-8.87,0-12.18-5.74-12.18-15.75Z"/><path class="cls-2" d="M735.39,2.09a5.75,5.75,0,0,1,5.74,5.83c0,4-2.87,6.26-5.74,6.26a6,6,0,0,1-6.27-6.26C729.12,4.35,732,2.09,735.39,2.09ZM730.17,22h10V61.16h-10Z"/><path class="cls-2" d="M771.66,21.05c13,0,21.32,8.79,21.32,20.53s-8.35,20.54-21.32,20.54-21.31-8.79-21.31-20.54S758.7,21.05,771.66,21.05Zm0,31.76c6.18,0,10.7-4.44,10.7-11.23,0-6.61-4.61-11.13-10.7-11.13-5.91,0-10.61,4.35-10.61,11.13C761.05,48.11,765.57,52.81,771.66,52.81Z"/><path class="cls-2" d="M801.68,22h10v3.92a15.73,15.73,0,0,1,11.23-4.62c9.57,0,16.09,4.62,16.09,16.88v23H829V39.93c0-6.26-3.22-9.22-8.79-9.22a11.73,11.73,0,0,0-8.53,3.74V61.16h-10Z"/><path class="cls-2" d="M36.8,159.73c-3.31,4.43-9.22,6.78-15.57,6.78C8.53,166.51,0,158.34,0,146c0-11.39,8.35-20.53,20.27-20.53,6.44,0,12.09,1.65,15.75,5.31l-4.7,7.91a13.15,13.15,0,0,0-9.74-3.82A10.82,10.82,0,0,0,10.7,146,11,11,0,0,0,22,157.21a13.37,13.37,0,0,0,10.09-4.79Z"/><path class="cls-2" d="M82.56,166.51H82c-13.66,0-21.23-8.87-21.23-20.53,0-10.61,7.48-20.53,21.14-20.53h.61V104.66h10v20.79h.7c13.48,0,21,9,21,20.53,0,11.66-6.87,20.53-21,20.53h-.7V183h-10Zm-.26-9.3h.26V134.85h-.7c-7.39,0-10.35,5.13-10.35,11.13C71.51,152.51,75.08,157.21,82.3,157.21Zm10.26-22.36v22.36h.35c7.22,0,10.7-4.62,10.7-11.23,0-5.83-3.3-11.13-10.35-11.13Z"/><path class="cls-2" d="M141.89,125.45c13,0,21.32,8.79,21.32,20.53s-8.36,20.53-21.32,20.53-21.31-8.78-21.31-20.53S128.93,125.45,141.89,125.45Zm0,31.76c6.18,0,10.7-4.44,10.7-11.23,0-6.61-4.61-11.13-10.7-11.13-5.91,0-10.61,4.35-10.61,11.13C131.28,152.51,135.8,157.21,141.89,157.21Z"/><path class="cls-2" d="M171.91,126.41h10v39.15h-10Zm22,18.62,16.87,20.53h-13l-15.49-19.75,14.09-19.4H209Z"/><path class="cls-2" d="M238.64,165.56c-5.75,14-9.4,17.4-15.14,17.4a13.78,13.78,0,0,1-8.44-3.05l3.22-7.57a8.43,8.43,0,0,0,4.09,1.39c2.52,0,4.35-2,6-6.09l.87-2.08-18.1-39.15h12l9.13,21.4c.79,1.91,1.31,3.74,1.92,5.65a39.06,39.06,0,0,1,1.39-5.74l7-21.31H254Z"/><path class="cls-2" d="M292.84,159.73c-3.31,4.43-9.23,6.78-15.58,6.78-12.7,0-21.22-8.17-21.22-20.53,0-11.39,8.35-20.53,20.27-20.53,6.43,0,12.09,1.65,15.74,5.31l-4.7,7.91a13.12,13.12,0,0,0-9.74-3.82A10.82,10.82,0,0,0,266.74,146a11,11,0,0,0,11.31,11.23,13.38,13.38,0,0,0,10.09-4.79Z"/><path class="cls-2" d="M317.63,125.45c13,0,21.31,8.79,21.31,20.53s-8.35,20.53-21.31,20.53-21.31-8.78-21.31-20.53S304.67,125.45,317.63,125.45Zm0,31.76c6.18,0,10.7-4.44,10.7-11.23,0-6.61-4.61-11.13-10.7-11.13-5.92,0-10.61,4.35-10.61,11.13C307,152.51,311.54,157.21,317.63,157.21Z"/><path class="cls-2" d="M347.65,126.41h9L370,142.76l12.62-16.35h8.78v39.15h-10V141.63l-11.57,14.62h-.26l-11.92-14.62v23.93h-10Z"/><path class="cls-2" d="M29.58,255H12.44v15h-10V230.81h10V245.6H29.58V230.81h10V270h-10Z"/><path class="cls-2" d="M51.24,233.59a29,29,0,0,1,13.83-3.74c11.57,0,15.66,5.92,15.66,16.27V270H72v-4.52c-2.08,3-6.26,5.05-11.57,5.05-7.13,0-12.26-4.44-12.26-12,0-8.61,6.35-12.7,14.26-12.7a16.31,16.31,0,0,1,8.88,2.52c.26-6.52-1.48-10.09-7.31-10.09-4.52,0-7.39,1.39-10.27,2.7Zm20.1,24.88v-4a11.07,11.07,0,0,0-6.88-1.91c-3.3,0-6.26,1.56-6.26,4.87,0,3,2.44,4.61,5.57,4.61C67.94,262,70.12,260.21,71.34,258.47Z"/><path class="cls-2" d="M383.56,264.13c-3.3,4.43-9.22,6.78-15.57,6.78-12.7,0-21.23-8.18-21.23-20.53,0-11.4,8.35-20.53,20.27-20.53,6.44,0,12.1,1.65,15.75,5.31l-4.7,7.91a13.16,13.16,0,0,0-9.74-3.83,10.83,10.83,0,0,0-10.88,11.14,11,11,0,0,0,11.31,11.22,13.34,13.34,0,0,0,10.09-4.78Z"/><path class="cls-2" d="M423.06,266c-3.91,3.31-9.48,4.87-15,4.87-12.62,0-21.06-8.18-21.06-20.53,0-11.4,7.83-20.53,20.71-20.53,10.09,0,18.53,7.22,18.53,18.18a17.89,17.89,0,0,1-.61,5.4H397.4c.87,5.91,5.56,9.13,11.74,9.13A18.08,18.08,0,0,0,420.19,259Zm-26-19.31h19.22c.09-4.79-3.21-8.53-9-8.53C401.31,238.2,398.09,241.59,397.05,246.73Z"/><path class="cls-2" d="M434.37,230.81h26.27v9.39H444.37V270h-10Z"/><path class="cls-2" d="M466.91,230.81h9l13.32,16.35,12.61-16.35h8.79V270h-10V246l-11.57,14.62h-.26L476.91,246V270h-10Z"/><path class="cls-2" d="M555.38,266c-3.91,3.31-9.48,4.87-15,4.87-12.61,0-21-8.18-21-20.53,0-11.4,7.83-20.53,20.7-20.53,10.09,0,18.53,7.22,18.53,18.18a17.89,17.89,0,0,1-.61,5.4H529.72c.87,5.91,5.57,9.13,11.74,9.13a18.08,18.08,0,0,0,11-3.57Zm-26-19.31H548.6c.08-4.79-3.22-8.53-9-8.53C533.63,238.2,530.42,241.59,529.37,246.73Z"/><path class="cls-2" d="M593.84,255H576.7v15h-10V230.81h10V245.6h17.14V230.81h10V270h-10Z"/><path class="cls-2" d="M610.89,230.81h35.67v10H633.77V270h-10V240.81H610.89Z"/></g></g></svg>