
<svg xmlns="http://www.w3.org/2000/svg" height="273" width="839" x="0px" y="0px"
	 viewBox="0 0 855 273" style="enable-background:new 0 0 855 273;">
<style type="text/css">
	.st0{fill:none;stroke:#1D1D1F;stroke-width:2;}
	.st1{fill:#1D1D1F;}
</style>
<g>
	<g id="Слой_1-2">
		<path class="st0" d="M100.5,210.1h34.4v7h-27v21.6h24.4v7h-24.3v25.4h-7.4V210.1z"/>
		<path class="st0" d="M147.5,210.1h7.5l22.9,31.2l21.9-31.2h7.1V271h-7.4v-49.2l-21.6,30.3h-1.1l-21.8-30v49h-7.4V210.1z"/>
		<path class="st0" d="M270.4,265.1c-4.1,4.2-11.7,6.8-19.2,6.8c-18.3,0-30.9-12.4-30.9-31.3c0-17.5,11.3-31.3,30.4-31.3
			c7.8,0,14.2,2.2,18.5,5.9l-3.4,5.6c-4-3-8.7-4.5-15-4.5c-13.2,0-22.6,9.9-22.6,24.4s9.6,24.4,23.8,24.4c5.7,0,11.1-1.9,15.6-5.4
			L270.4,265.1z"/>
		<path class="st0" d="M305.3,240.1h23.4v23.4c-5.4,5.4-15.2,8.4-22.8,8.4c-19,0-30.9-12.4-30.9-31.3c0-17.5,11.7-31.3,29.9-31.3
			c8.3,0,14.2,2,19.1,5.9l-3.2,5.9c-3.6-3.2-9.2-4.9-15-4.9c-13.6,0-23,9.7-23,24.4s9.4,24.4,23.2,24.4c5.7,0,12.4-2.3,15.7-5.4V247
			h-16.5V240.1z"/>
		<path class="st1" d="M5.3,0.4h10.8l20.8,28.5L56.7,0.4h10.1v60.9H56.2v-44L37,44.3h-1.6L16,17.5v43.8H5.3V0.4z"/>
		<path class="st1" d="M80.8,22.1h10v10.7h4.9c13.3,0,17.2,6.6,17.2,13.6c0,7.5-4.7,14.9-18,14.9H80.8V22.1z M90.8,40.8v11.8h3.9
			c5.4,0,7.6-2.3,7.6-5.8s-2.1-5.9-7.5-5.9L90.8,40.8z M118.5,22.1h10v39.2h-10L118.5,22.1z"/>
		<path class="st1" d="M160.9,0.4h1.1c3.7,0,12.4-0.3,16.8-0.3c24.4,0,34.2,14,34.2,30.1c0,17.1-11.7,31.2-34.9,31.2
			c-3.6,0-10.4-0.2-16-0.2H161L160.9,0.4z M171.6,10.4v40.9c3,0.2,5.4,0.2,6.9,0.2c14.7,0,23.2-8.3,23.2-21.2
			c0-12.3-8.5-20.1-23.1-20.1C176.2,10.1,174.1,10.2,171.6,10.4L171.6,10.4z"/>
		<path class="st1" d="M229.2,2.2c3.2,0,5.8,2.6,5.8,5.7c0,0,0,0.1,0,0.1c0,4-2.9,6.3-5.7,6.3c-3.3,0.1-6.1-2.4-6.3-5.7
			c0-0.2,0-0.4,0-0.5C223,4.5,225.8,2.2,229.2,2.2z M224,22.1h10v39.2h-10V22.1z"/>
		<path class="st1" d="M254.2,54.5c-0.4-0.8-0.7-1.8-0.7-2.7c0-1,0.3-2,0.9-2.8c-5.9-2.3-9.3-7.4-9.3-13.1c0-7.8,6.4-14.7,16.7-14.7
			c3.5-0.1,7,0.9,10,2.8l11.8-2.6l0.4,8l-6.5,1.5c0.6,1.6,1,3.3,1,5c0,7.8-6.5,14.4-16.6,14.4h-0.7c-0.1,0.5-0.2,1-0.2,1.5
			c0,0.7,0.2,1.4,0.5,2h0.4c11.4,0,20.4,4,20.4,12.8s-9,12.8-20.4,12.8s-20.4-3.8-20.4-12.7C241.5,60,246.7,56,254.2,54.5z
			 M261.9,71.4c6.8,0,11-1.7,11-4.8c0-2.9-3.7-4.8-11-4.8s-11.1,1.9-11.1,4.8C250.8,69.6,255.1,71.4,261.9,71.4L261.9,71.4z
			 M261.8,42.2c4.3,0,7.3-2.4,7.3-6.3c0-3.7-2.6-6.6-7.3-6.6c-4.5,0-7.3,3-7.3,6.6S257.2,42.2,261.8,42.2L261.8,42.2z"/>
		<path class="st1" d="M296.8,2.2c3.2,0,5.7,2.6,5.7,5.8c0,0,0,0,0,0.1c0,4-2.9,6.3-5.7,6.3c-3.3,0.2-6.1-2.4-6.3-5.7
			c0-0.2,0-0.4,0-0.5C290.5,4.5,293.4,2.2,296.8,2.2z M291.5,22.1h10v39.2h-10V22.1z"/>
		<path class="st1" d="M313.3,11.3h10v10.9h12.6v9.4h-12.6v14.3c0,4.3,1.4,7,4.7,7c2.2-0.1,4.3-0.9,6-2.3l3,7.7
			c-3.3,2.5-7.4,3.9-11.5,3.8c-8.9,0-12.2-5.7-12.2-15.8V11.3z"/>
		<path class="st1" d="M346,24.9c4.2-2.4,9-3.7,13.8-3.7c11.6,0,15.7,5.9,15.7,16.3v23.8h-8.7v-4.5c-2.1,3-6.3,5-11.6,5
			c-7.1,0-12.3-4.4-12.3-12c0-8.6,6.4-12.7,14.3-12.7c3.1,0,6.2,0.8,8.9,2.5c0.3-6.5-1.5-10.1-7.3-10.1c-4.5,0-7.4,1.4-10.3,2.7
			L346,24.9z M366.1,49.8v-4c-2-1.4-4.4-2-6.9-1.9c-3.3,0-6.3,1.6-6.3,4.9c0,3,2.4,4.6,5.6,4.6C362.7,53.4,364.9,51.5,366.1,49.8
			L366.1,49.8z"/>
		<path class="st1" d="M385.7,0.4h10v46c0,4.4,1,6.3,3.4,6.3c1.5-0.1,2.9-0.6,4.1-1.6l2.1,7.7c-3,2.3-6.6,3.4-10.3,3.3
			c-6,0-9.2-3.7-9.2-11.7L385.7,0.4z"/>
		<path class="st1" d="M433.1,61.3V0.4c3.4,0,13-0.2,17.3-0.2c17.9,0,23.6,9.6,23.6,19.6c0,10.4-7.7,19.8-22.3,19.8
			c-1.8,0-5.3,0-7.9-0.3v22L433.1,61.3z M443.8,10.4v18.7c2.5,0.3,5,0.4,7.6,0.4c6.4,0,11.3-3,11.3-9.8c0-6.4-3.9-9.5-11.2-9.5
			C449.2,10.2,446.6,10.3,443.8,10.4L443.8,10.4z"/>
		<path class="st1" d="M480.4,22.1h10v3.8c2-3,5.4-4.7,9-4.5c3.2,0,4.8,0.5,6.1,1.5l-3.6,9.4c-1.5-1-3.3-1.5-5-1.5
			c-2.8-0.1-5.4,1.6-6.4,4.2v26.3h-10L480.4,22.1z"/>
		<path class="st1" d="M530.1,21.2c13,0,21.3,8.8,21.3,20.5s-8.4,20.5-21.3,20.5s-21.3-8.8-21.3-20.5S517.1,21.2,530.1,21.2z
			 M530.1,52.9c6.2,0,10.7-4.4,10.7-11.2c0-6.6-4.6-11.1-10.7-11.1c-5.9,0-10.6,4.3-10.6,11.1C519.5,48.2,524,52.9,530.1,52.9z"/>
		<path class="st1" d="M587.3,57.2c-2.9,3.1-7,4.9-11.2,4.8c-11.2,0-18.4-7.9-18.4-19.8c0-12.4,8.9-21,21.5-21
			c2.9-0.1,5.7,0.6,8.2,2V0.4h10v60.9h-10V57.2z M587.3,48.7V32.9c-2.3-1.5-5-2.3-7.8-2.4c-5.9,0-11.2,4-11.2,11.2
			c0,7,4.5,10.9,9.8,10.9C581.6,52.6,584.9,51.1,587.3,48.7z"/>
		<path class="st1" d="M643.9,61.3h-10v-4.8c-3.1,3.7-7.7,5.9-12.5,5.8c-7.7,0-13.7-5-13.7-16.2V22.1h10V44c0,5.2,2,9,7.5,9
			c3.5-0.2,6.8-2,8.8-4.8v-26h10L643.9,61.3z"/>
		<path class="st1" d="M689.4,55.4c-3.3,4.4-9.2,6.8-15.6,6.8c-12.7,0-21.2-8.2-21.2-20.5c0-11.4,8.3-20.5,20.3-20.5
			c6.4,0,12.1,1.7,15.7,5.3l-4.7,7.9c-2.6-2.6-6.1-4-9.7-3.8c-6,0-10.8,4.8-10.9,10.8c0,0.1,0,0.2,0,0.4
			c-0.1,6.1,4.7,11.1,10.8,11.2c0.2,0,0.4,0,0.5,0c3.9-0.1,7.6-1.8,10.1-4.8L689.4,55.4z"/>
		<path class="st1" d="M696.5,11.3h10v10.9h12.6v9.4h-12.6v14.3c0,4.3,1.4,7,4.7,7c2.2-0.1,4.3-0.9,6-2.3l3,7.7
			c-3.3,2.5-7.4,3.9-11.5,3.8c-8.9,0-12.2-5.7-12.2-15.8V11.3z"/>
		<path class="st1" d="M735.4,2.2c3.2,0,5.7,2.6,5.7,5.8c0,0,0,0,0,0.1c0,4-2.9,6.3-5.7,6.3c-3.3,0.2-6.1-2.4-6.3-5.7
			c0-0.2,0-0.4,0-0.5C729.1,4.5,732,2.2,735.4,2.2z M730.2,22.1h10v39.2h-10V22.1z"/>
		<path class="st1" d="M771.7,21.2c13,0,21.3,8.8,21.3,20.5s-8.3,20.5-21.3,20.5s-21.3-8.8-21.3-20.5S758.7,21.2,771.7,21.2z
			 M771.7,52.9c6.2,0,10.7-4.4,10.7-11.2c0-6.6-4.6-11.1-10.7-11.1c-5.9,0-10.6,4.3-10.6,11.1C761,48.2,765.6,52.9,771.7,52.9z"/>
		<path class="st1" d="M801.7,22.1h10V26c3-3,7-4.6,11.2-4.6c9.6,0,16.1,4.6,16.1,16.9v23h-10V40c0-6.3-3.2-9.2-8.8-9.2
			c-3.2,0-6.3,1.4-8.5,3.7v26.7h-10V22.1z"/>
		<path class="st1" d="M36.8,159.8c-3.3,4.4-9.2,6.8-15.6,6.8C8.5,166.6,0,158.4,0,146.1c0-11.4,8.4-20.5,20.3-20.5
			c6.4,0,12.1,1.7,15.8,5.3l-4.7,7.9c-2.6-2.6-6.1-3.9-9.7-3.8c-6,0-10.8,4.8-10.9,10.8c0,0.1,0,0.2,0,0.4
			c-0.1,6.1,4.7,11.1,10.8,11.2c0.2,0,0.3,0,0.5,0c3.9,0,7.6-1.8,10.1-4.8L36.8,159.8z"/>
		<path class="st1" d="M82.6,166.6H82c-13.7,0-21.2-8.9-21.2-20.5c0-10.6,7.5-20.5,21.1-20.5h0.6v-20.8h10v20.8h0.7
			c13.5,0,21,9,21,20.5c0,11.7-6.9,20.5-21,20.5h-0.7v16.5h-10L82.6,166.6z M82.3,157.3h0.3V135h-0.7c-7.4,0-10.3,5.1-10.3,11.1
			C71.5,152.6,75.1,157.3,82.3,157.3L82.3,157.3z M92.6,135v22.4h0.3c7.2,0,10.7-4.6,10.7-11.2c0-5.8-3.3-11.1-10.3-11.1H92.6z"/>
		<path class="st1" d="M141.9,125.6c13,0,21.3,8.8,21.3,20.5s-8.4,20.5-21.3,20.5s-21.3-8.8-21.3-20.5S128.9,125.6,141.9,125.6z
			 M141.9,157.3c6.2,0,10.7-4.4,10.7-11.2c0-6.6-4.6-11.1-10.7-11.1c-5.9,0-10.6,4.4-10.6,11.1C131.3,152.6,135.8,157.3,141.9,157.3
			L141.9,157.3z"/>
		<path class="st1" d="M171.9,126.5h10v39.1h-10V126.5z M193.9,145.1l16.9,20.5h-13l-15.5-19.8l14.1-19.4H209L193.9,145.1z"/>
		<path class="st1" d="M238.6,165.7c-5.8,14-9.4,17.4-15.1,17.4c-3.1,0-6-1.1-8.4-3.1l3.2-7.6c1.2,0.8,2.6,1.3,4.1,1.4
			c2.5,0,4.4-2,6-6.1l0.9-2.1l-18.1-39.2h12l9.1,21.4c0.8,1.9,1.3,3.7,1.9,5.6c0.3-1.9,0.8-3.9,1.4-5.7l7-21.3H254L238.6,165.7z"/>
		<path class="st1" d="M292.8,159.8c-3.3,4.4-9.2,6.8-15.6,6.8c-12.7,0-21.2-8.2-21.2-20.5c0-11.4,8.4-20.5,20.3-20.5
			c6.4,0,12.1,1.7,15.7,5.3l-4.7,7.9c-2.6-2.6-6.1-4-9.7-3.8c-6,0-10.8,4.8-10.9,10.8c0,0.1,0,0.3,0,0.4
			c-0.1,6.1,4.7,11.1,10.8,11.2c0.2,0,0.4,0,0.5,0c3.9,0,7.6-1.8,10.1-4.8L292.8,159.8z"/>
		<path class="st1" d="M317.6,125.6c13,0,21.3,8.8,21.3,20.5s-8.4,20.5-21.3,20.5s-21.3-8.8-21.3-20.5S304.7,125.6,317.6,125.6z
			 M317.6,157.3c6.2,0,10.7-4.4,10.7-11.2c0-6.6-4.6-11.1-10.7-11.1c-5.9,0-10.6,4.4-10.6,11.1C307,152.6,311.5,157.3,317.6,157.3
			L317.6,157.3z"/>
		<path class="st1" d="M347.6,126.5h9l13.4,16.3l12.6-16.3h8.8v39.2h-10v-23.9l-11.6,14.6h-0.3l-11.9-14.6v23.9h-10L347.6,126.5z"/>
		<path class="st1" d="M29.6,255.1H12.4v15h-10v-39.2h10v14.8h17.1v-14.8h10v39.2h-10L29.6,255.1z"/>
		<path class="st1" d="M51.2,233.7c4.2-2.4,9-3.7,13.8-3.7c11.6,0,15.7,5.9,15.7,16.3v23.9H72v-4.5c-2.1,3-6.3,5-11.6,5
			c-7.1,0-12.3-4.4-12.3-12c0-8.6,6.3-12.7,14.3-12.7c3.1,0,6.2,0.8,8.9,2.5c0.3-6.5-1.5-10.1-7.3-10.1c-4.5,0-7.4,1.4-10.3,2.7
			L51.2,233.7z M71.3,258.6v-4c-2-1.4-4.4-2.1-6.9-1.9c-3.3,0-6.3,1.6-6.3,4.9c0,3,2.4,4.6,5.6,4.6
			C67.9,262.1,70.1,260.3,71.3,258.6z"/>
		<path class="st1" d="M383.6,264.2c-3.3,4.4-9.2,6.8-15.6,6.8c-12.7,0-21.2-8.2-21.2-20.5c0-11.4,8.4-20.5,20.3-20.5
			c6.4,0,12.1,1.6,15.8,5.3l-4.7,7.9c-2.6-2.6-6.1-4-9.7-3.8c-6,0-10.9,4.8-10.9,10.8c0,0.1,0,0.2,0,0.4
			c-0.1,6.1,4.7,11.1,10.8,11.2c0.2,0,0.4,0,0.5,0c3.9,0,7.6-1.8,10.1-4.8L383.6,264.2z"/>
		<path class="st1" d="M423.1,266.1c-3.9,3.3-9.5,4.9-15,4.9c-12.6,0-21.1-8.2-21.1-20.5c0-11.4,7.8-20.5,20.7-20.5
			c10.1,0,18.5,7.2,18.5,18.2c0.1,1.8-0.1,3.6-0.6,5.4h-28.2c0.9,5.9,5.6,9.1,11.7,9.1c4,0.1,7.9-1.2,11.1-3.5L423.1,266.1z
			 M397.1,246.8h19.2c0.1-4.8-3.2-8.5-9-8.5C401.3,238.3,398.1,241.7,397.1,246.8L397.1,246.8z"/>
		<path class="st1" d="M434.4,230.9h26.3v9.4h-16.3v29.8h-10V230.9z"/>
		<path class="st1" d="M466.9,230.9h9l13.3,16.4l12.6-16.4h8.8v39.2h-10v-24l-11.6,14.6h-0.3l-11.9-14.6v24h-10V230.9z"/>
		<path class="st1" d="M555.4,266.1c-3.9,3.3-9.5,4.9-15,4.9c-12.6,0-21-8.2-21-20.5c0-11.4,7.8-20.5,20.7-20.5
			c10.1,0,18.5,7.2,18.5,18.2c0.1,1.8-0.1,3.6-0.6,5.4h-28.3c0.9,5.9,5.6,9.1,11.7,9.1c4,0,7.8-1.2,11-3.6L555.4,266.1z
			 M529.4,246.8h19.2c0.1-4.8-3.2-8.5-9-8.5C533.6,238.3,530.4,241.7,529.4,246.8L529.4,246.8z"/>
		<path class="st1" d="M593.8,255.1h-17.1v15h-10v-39.2h10v14.8h17.1v-14.8h10v39.2h-10V255.1z"/>
		<path class="st1" d="M610.9,230.9h35.7v10h-12.8v29.2h-10v-29.2h-12.9V230.9z"/>
	</g>
</g>
</svg>
