<svg xmlns="http://www.w3.org/2000/svg" height="273" width="839" viewBox="0 0 855 273"><path d="M100.5 210.1h34.4v7h-27v21.6h24.4v7H108v25.4h-7.4v-61zm47 0h7.5l22.9 31.2 21.9-31.2h7.1V271h-7.4v-49.2l-21.6 30.3h-1.1l-21.8-30v49h-7.4v-61zm122.9 55c-4.1 4.2-11.7 6.8-19.2 6.8-18.3 0-30.9-12.4-30.9-31.3 0-17.5 11.3-31.3 30.4-31.3 7.8 0 14.2 2.2 18.5 5.9l-3.4 5.6c-4-3-8.7-4.5-15-4.5-13.2 0-22.6 9.9-22.6 24.4s9.6 24.4 23.8 24.4c5.7 0 11.1-1.9 15.6-5.4l2.8 5.4zm34.9-25h23.4v23.4c-5.4 5.4-15.2 8.4-22.8 8.4-19 0-30.9-12.4-30.9-31.3 0-17.5 11.7-31.3 29.9-31.3 8.3 0 14.2 2 19.1 5.9l-3.2 5.9c-3.6-3.2-9.2-4.9-15-4.9-13.6 0-23 9.7-23 24.4S292.2 265 306 265c5.7 0 12.4-2.3 15.7-5.4V247h-16.5v-6.9z" fill="none" stroke="#1d1d1f" stroke-width="2"/><path d="M5.3.4h10.8l20.8 28.5L56.7.4h10.1v60.9H56.2v-44L37 44.3h-1.6L16 17.5v43.8H5.3V.4zm75.5 21.7h10v10.7h4.9c13.3 0 17.2 6.6 17.2 13.6 0 7.5-4.7 14.9-18 14.9H80.8V22.1zm10 18.7v11.8h3.9c5.4 0 7.6-2.3 7.6-5.8s-2.1-5.9-7.5-5.9l-4-.1zm27.7-18.7h10v39.2h-10V22.1zM160.9.4h1.1c3.7 0 12.4-.3 16.8-.3 24.4 0 34.2 14 34.2 30.1 0 17.1-11.7 31.2-34.9 31.2-3.6 0-10.4-.2-16-.2H161L160.9.4zm10.7 10v40.9c3 .2 5.4.2 6.9.2 14.7 0 23.2-8.3 23.2-21.2 0-12.3-8.5-20.1-23.1-20.1-2.4-.1-4.5 0-7 .2zm57.6-8.2c3.2 0 5.8 2.6 5.8 5.7V8c0 4-2.9 6.3-5.7 6.3-3.3.1-6.1-2.4-6.3-5.7v-.5c0-3.6 2.8-5.9 6.2-5.9zM224 22.1h10v39.2h-10V22.1zm30.2 32.4c-.4-.8-.7-1.8-.7-2.7 0-1 .3-2 .9-2.8-5.9-2.3-9.3-7.4-9.3-13.1 0-7.8 6.4-14.7 16.7-14.7 3.5-.1 7 .9 10 2.8l11.8-2.6.4 8-6.5 1.5c.6 1.6 1 3.3 1 5 0 7.8-6.5 14.4-16.6 14.4h-.7c-.1.5-.2 1-.2 1.5 0 .7.2 1.4.5 2h.4c11.4 0 20.4 4 20.4 12.8s-9 12.8-20.4 12.8-20.4-3.8-20.4-12.7c0-6.7 5.2-10.7 12.7-12.2zm7.7 16.9c6.8 0 11-1.7 11-4.8 0-2.9-3.7-4.8-11-4.8s-11.1 1.9-11.1 4.8c0 3 4.3 4.8 11.1 4.8zm-.1-29.2c4.3 0 7.3-2.4 7.3-6.3 0-3.7-2.6-6.6-7.3-6.6-4.5 0-7.3 3-7.3 6.6s2.7 6.3 7.3 6.3zm35-40c3.2 0 5.7 2.6 5.7 5.8v.1c0 4-2.9 6.3-5.7 6.3-3.3.2-6.1-2.4-6.3-5.7v-.5c0-3.7 2.9-6 6.3-6zm-5.3 19.9h10v39.2h-10V22.1zm21.8-10.8h10v10.9h12.6v9.4h-12.6v14.3c0 4.3 1.4 7 4.7 7 2.2-.1 4.3-.9 6-2.3l3 7.7c-3.3 2.5-7.4 3.9-11.5 3.8-8.9 0-12.2-5.7-12.2-15.8v-35zM346 24.9c4.2-2.4 9-3.7 13.8-3.7 11.6 0 15.7 5.9 15.7 16.3v23.8h-8.7v-4.5c-2.1 3-6.3 5-11.6 5-7.1 0-12.3-4.4-12.3-12 0-8.6 6.4-12.7 14.3-12.7 3.1 0 6.2.8 8.9 2.5.3-6.5-1.5-10.1-7.3-10.1-4.5 0-7.4 1.4-10.3 2.7l-2.5-7.3zm20.1 24.9v-4c-2-1.4-4.4-2-6.9-1.9-3.3 0-6.3 1.6-6.3 4.9 0 3 2.4 4.6 5.6 4.6 4.2 0 6.4-1.9 7.6-3.6zM385.7.4h10v46c0 4.4 1 6.3 3.4 6.3 1.5-.1 2.9-.6 4.1-1.6l2.1 7.7c-3 2.3-6.6 3.4-10.3 3.3-6 0-9.2-3.7-9.2-11.7l-.1-50zm47.4 60.9V.4c3.4 0 13-.2 17.3-.2C468.3.2 474 9.8 474 19.8c0 10.4-7.7 19.8-22.3 19.8-1.8 0-5.3 0-7.9-.3v22h-10.7zm10.7-50.9v18.7c2.5.3 5 .4 7.6.4 6.4 0 11.3-3 11.3-9.8 0-6.4-3.9-9.5-11.2-9.5-2.3 0-4.9.1-7.7.2zm36.6 11.7h10v3.8c2-3 5.4-4.7 9-4.5 3.2 0 4.8.5 6.1 1.5l-3.6 9.4c-1.5-1-3.3-1.5-5-1.5-2.8-.1-5.4 1.6-6.4 4.2v26.3h-10l-.1-39.2zm49.7-.9c13 0 21.3 8.8 21.3 20.5s-8.4 20.5-21.3 20.5-21.3-8.8-21.3-20.5 8.3-20.5 21.3-20.5zm0 31.7c6.2 0 10.7-4.4 10.7-11.2 0-6.6-4.6-11.1-10.7-11.1-5.9 0-10.6 4.3-10.6 11.1 0 6.5 4.5 11.2 10.6 11.2zm57.2 4.3c-2.9 3.1-7 4.9-11.2 4.8-11.2 0-18.4-7.9-18.4-19.8 0-12.4 8.9-21 21.5-21 2.9-.1 5.7.6 8.2 2V.4h10v60.9h-10v-4.1zm0-8.5V32.9c-2.3-1.5-5-2.3-7.8-2.4-5.9 0-11.2 4-11.2 11.2 0 7 4.5 10.9 9.8 10.9 3.5 0 6.8-1.5 9.2-3.9zm56.6 12.6h-10v-4.8c-3.1 3.7-7.7 5.9-12.5 5.8-7.7 0-13.7-5-13.7-16.2v-24h10V44c0 5.2 2 9 7.5 9 3.5-.2 6.8-2 8.8-4.8v-26h10l-.1 39.1zm45.5-5.9c-3.3 4.4-9.2 6.8-15.6 6.8-12.7 0-21.2-8.2-21.2-20.5 0-11.4 8.3-20.5 20.3-20.5 6.4 0 12.1 1.7 15.7 5.3l-4.7 7.9c-2.6-2.6-6.1-4-9.7-3.8-6 0-10.8 4.8-10.9 10.8v.4c-.1 6.1 4.7 11.1 10.8 11.2h.5c3.9-.1 7.6-1.8 10.1-4.8l4.7 7.2zm7.1-44.1h10v10.9h12.6v9.4h-12.6v14.3c0 4.3 1.4 7 4.7 7 2.2-.1 4.3-.9 6-2.3l3 7.7c-3.3 2.5-7.4 3.9-11.5 3.8-8.9 0-12.2-5.7-12.2-15.8v-35zm38.9-9.1c3.2 0 5.7 2.6 5.7 5.8v.1c0 4-2.9 6.3-5.7 6.3-3.3.2-6.1-2.4-6.3-5.7v-.5c0-3.7 2.9-6 6.3-6zm-5.2 19.9h10v39.2h-10V22.1zm41.5-.9c13 0 21.3 8.8 21.3 20.5s-8.3 20.5-21.3 20.5-21.3-8.8-21.3-20.5 8.3-20.5 21.3-20.5zm0 31.7c6.2 0 10.7-4.4 10.7-11.2 0-6.6-4.6-11.1-10.7-11.1-5.9 0-10.6 4.3-10.6 11.1-.1 6.5 4.5 11.2 10.6 11.2zm30-30.8h10V26c3-3 7-4.6 11.2-4.6 9.6 0 16.1 4.6 16.1 16.9v23h-10V40c0-6.3-3.2-9.2-8.8-9.2-3.2 0-6.3 1.4-8.5 3.7v26.7h-10V22.1zM36.8 159.8c-3.3 4.4-9.2 6.8-15.6 6.8-12.7 0-21.2-8.2-21.2-20.5 0-11.4 8.4-20.5 20.3-20.5 6.4 0 12.1 1.7 15.8 5.3l-4.7 7.9c-2.6-2.6-6.1-3.9-9.7-3.8-6 0-10.8 4.8-10.9 10.8v.4c-.1 6.1 4.7 11.1 10.8 11.2h.5c3.9 0 7.6-1.8 10.1-4.8l4.6 7.2zm45.8 6.8H82c-13.7 0-21.2-8.9-21.2-20.5 0-10.6 7.5-20.5 21.1-20.5h.6v-20.8h10v20.8h.7c13.5 0 21 9 21 20.5 0 11.7-6.9 20.5-21 20.5h-.7v16.5h-10l.1-16.5zm-.3-9.3h.3V135h-.7c-7.4 0-10.3 5.1-10.3 11.1-.1 6.5 3.5 11.2 10.7 11.2zM92.6 135v22.4h.3c7.2 0 10.7-4.6 10.7-11.2 0-5.8-3.3-11.1-10.3-11.1h-.7zm49.3-9.4c13 0 21.3 8.8 21.3 20.5s-8.4 20.5-21.3 20.5-21.3-8.8-21.3-20.5 8.3-20.5 21.3-20.5zm0 31.7c6.2 0 10.7-4.4 10.7-11.2 0-6.6-4.6-11.1-10.7-11.1-5.9 0-10.6 4.4-10.6 11.1 0 6.5 4.5 11.2 10.6 11.2zm30-30.8h10v39.1h-10v-39.1zm22 18.6l16.9 20.5h-13l-15.5-19.8 14.1-19.4H209l-15.1 18.7zm44.7 20.6c-5.8 14-9.4 17.4-15.1 17.4-3.1 0-6-1.1-8.4-3.1l3.2-7.6c1.2.8 2.6 1.3 4.1 1.4 2.5 0 4.4-2 6-6.1l.9-2.1-18.1-39.2h12l9.1 21.4c.8 1.9 1.3 3.7 1.9 5.6.3-1.9.8-3.9 1.4-5.7l7-21.3H254l-15.4 39.3zm54.2-5.9c-3.3 4.4-9.2 6.8-15.6 6.8-12.7 0-21.2-8.2-21.2-20.5 0-11.4 8.4-20.5 20.3-20.5 6.4 0 12.1 1.7 15.7 5.3l-4.7 7.9c-2.6-2.6-6.1-4-9.7-3.8-6 0-10.8 4.8-10.9 10.8v.4c-.1 6.1 4.7 11.1 10.8 11.2h.5c3.9 0 7.6-1.8 10.1-4.8l4.7 7.2zm24.8-34.2c13 0 21.3 8.8 21.3 20.5s-8.4 20.5-21.3 20.5-21.3-8.8-21.3-20.5 8.4-20.5 21.3-20.5zm0 31.7c6.2 0 10.7-4.4 10.7-11.2 0-6.6-4.6-11.1-10.7-11.1-5.9 0-10.6 4.4-10.6 11.1 0 6.5 4.5 11.2 10.6 11.2zm30-30.8h9l13.4 16.3 12.6-16.3h8.8v39.2h-10v-23.9l-11.6 14.6h-.3l-11.9-14.6v23.9h-10v-39.2zm-318 128.6H12.4v15h-10v-39.2h10v14.8h17.1v-14.8h10v39.2h-10l.1-15zm21.6-21.4c4.2-2.4 9-3.7 13.8-3.7 11.6 0 15.7 5.9 15.7 16.3v23.9H72v-4.5c-2.1 3-6.3 5-11.6 5-7.1 0-12.3-4.4-12.3-12 0-8.6 6.3-12.7 14.3-12.7 3.1 0 6.2.8 8.9 2.5.3-6.5-1.5-10.1-7.3-10.1-4.5 0-7.4 1.4-10.3 2.7l-2.5-7.4zm20.1 24.9v-4c-2-1.4-4.4-2.1-6.9-1.9-3.3 0-6.3 1.6-6.3 4.9 0 3 2.4 4.6 5.6 4.6 4.2-.1 6.4-1.9 7.6-3.6zm312.3 5.6c-3.3 4.4-9.2 6.8-15.6 6.8-12.7 0-21.2-8.2-21.2-20.5 0-11.4 8.4-20.5 20.3-20.5 6.4 0 12.1 1.6 15.8 5.3l-4.7 7.9c-2.6-2.6-6.1-4-9.7-3.8-6 0-10.9 4.8-10.9 10.8v.4c-.1 6.1 4.7 11.1 10.8 11.2h.5c3.9 0 7.6-1.8 10.1-4.8l4.6 7.2zm39.5 1.9c-3.9 3.3-9.5 4.9-15 4.9-12.6 0-21.1-8.2-21.1-20.5 0-11.4 7.8-20.5 20.7-20.5 10.1 0 18.5 7.2 18.5 18.2.1 1.8-.1 3.6-.6 5.4h-28.2c.9 5.9 5.6 9.1 11.7 9.1 4 .1 7.9-1.2 11.1-3.5l2.9 6.9zm-26-19.3h19.2c.1-4.8-3.2-8.5-9-8.5-6 0-9.2 3.4-10.2 8.5zm37.3-15.9h26.3v9.4h-16.3v29.8h-10v-39.2zm32.5 0h9l13.3 16.4 12.6-16.4h8.8v39.2h-10v-24L489 260.7h-.3l-11.9-14.6v24h-10v-39.2zm88.5 35.2c-3.9 3.3-9.5 4.9-15 4.9-12.6 0-21-8.2-21-20.5 0-11.4 7.8-20.5 20.7-20.5 10.1 0 18.5 7.2 18.5 18.2.1 1.8-.1 3.6-.6 5.4h-28.3c.9 5.9 5.6 9.1 11.7 9.1 4 0 7.8-1.2 11-3.6l3 7zm-26-19.3h19.2c.1-4.8-3.2-8.5-9-8.5-6 0-9.2 3.4-10.2 8.5zm64.4 8.3h-17.1v15h-10v-39.2h10v14.8h17.1v-14.8h10v39.2h-10v-15zm17.1-24.2h35.7v10h-12.8v29.2h-10v-29.2h-12.9v-10z" fill="#1d1d1f"/></svg>