<svg xmlns="http://www.w3.org/2000/svg" viewBox="0 0 800 102.35"><defs><style>.cls-1{fill:#000;}</style></defs><title>logo</title><g id="Слой_2" data-name="Слой 2"><g id="Слой_1-2" data-name="Слой 1"><path class="cls-1" d="M783.52,7.14a8.17,8.17,0,0,1,8.16,8.16V51.14H800V15.31A15.33,15.33,0,0,0,784.69,0h-23V7.14Z"/><path class="cls-1" d="M239.54,87a8.17,8.17,0,0,1-8.16,8.16H217.54A8.17,8.17,0,0,1,209.38,87V51.15h-8.31V87a15.33,15.33,0,0,0,15.3,15.31h16.18A15.33,15.33,0,0,0,247.86,87V51.15h-8.31V87Z"/><path class="cls-1" d="M79.08,87V51.15H70.77V87A15.33,15.33,0,0,0,86.08,102.3h23V95.16H87.25A8.19,8.19,0,0,1,79.08,87Z"/><path class="cls-1" d="M481.68,87V51.15h-8.31V87a15.33,15.33,0,0,0,15.3,15.31h23V95.16H489.84A8.18,8.18,0,0,1,481.68,87Z"/><path class="cls-1" d="M545.42,95.15A8.17,8.17,0,0,1,537.26,87V51.15H529V87a15.33,15.33,0,0,0,15.31,15.31h23V95.16H545.42Z"/><path class="cls-1" d="M402.73,49.78a8.79,8.79,0,0,0-8.5,5.55l0,.07s0,0,0,0l-5.59,17L383.45,88a.42.42,0,0,1-.45.3.42.42,0,0,1-.45-.3l-5.16-15.62-5.59-17s0,0,0,0l0-.07a8.8,8.8,0,0,0-8.5-5.55c-4.6,0-9.54,2.76-9.54,8.82v43.7H362V58.6c0-1.11.36-1.68,1.06-1.68h.24a.44.44,0,0,1,.17.08l.09.08.12.14.15.24a2.17,2.17,0,0,1,.12.26c0,.07.06.13.09.21l.36,1.09L376,93.11a7.58,7.58,0,0,0,7,4.12h0a7.55,7.55,0,0,0,7-4.12L401.54,59,401.9,58l.09-.21c0-.1.08-.18.12-.26a1.25,1.25,0,0,1,.15-.24.58.58,0,0,1,.12-.14l.09-.08a.44.44,0,0,1,.17-.08h.24c.71,0,1.06.56,1.06,1.68v43.7h8.31V58.6C412.28,52.54,407.33,49.78,402.73,49.78Z"/><rect class="cls-1" x="438.64" y="51.15" width="8.31" height="51.14"/><path class="cls-1" d="M175.12,68.31v-.78h0a19.19,19.19,0,0,0-.63-5.46,15.33,15.33,0,0,0-14.66-10.92H145.11c-1,0-2,0-3,0A15.52,15.52,0,0,0,130.93,56c-4.17,4.43-4.16,9.73-4.16,14.86V86.25c0,7.73,4.79,14,11.87,15.65a22,22,0,0,0,5.31.39h8.91l2.15,0,2.23,0c3.77,0,7.73-.33,11.23-2.73A15.51,15.51,0,0,0,175,88.75a27.56,27.56,0,0,0,.11-3.7Zm-40.06,5.84h0c0-2.36-.05-5,0-7.63a8.36,8.36,0,0,1,8.23-8.23c1.36,0,2.73,0,4.1,0l4,0h.19l4.17,0h.93a13.81,13.81,0,0,1,4.52.42,8.29,8.29,0,0,1,2,1L135.15,87.8c-.07-.76-.07-1.55-.07-2.39V78C135.09,76.72,135.07,75.43,135.06,74.15Zm31.82,7.76c.13,3.79.28,8.08-2.17,10.53-2.53,2.76-5.84,2.74-9.68,2.71H144.86a13.35,13.35,0,0,1-3.76-.3,8.3,8.3,0,0,1-2-.88l27.73-27.73c0,.07,0,.13,0,.2v13C166.82,80.21,166.85,81.05,166.88,81.91Z"/><path class="cls-1" d="M31.73,51.17H15.29A15.32,15.32,0,0,0,0,66.48V87a15.32,15.32,0,0,0,15.29,15.31H47V95.15H16.47A8.17,8.17,0,0,1,8.3,87V66.48a8.18,8.18,0,0,1,8.17-8.17H30.55a8.18,8.18,0,0,1,8.17,8.17v5.15H47V66.48A15.31,15.31,0,0,0,31.73,51.17Z"/><path class="cls-1" d="M323,66.44a15.25,15.25,0,0,0-.09-1.66l0-.21a14.36,14.36,0,0,0-.25-1.46l0-.13q-.18-.75-.42-1.47a1.19,1.19,0,0,0-.08-.2c-.1-.28-.2-.57-.32-.85l-.08-.2c0-.09-.1-.18-.14-.27s0-.09-.05-.13c-.22-.46-.47-.9-.73-1.33l-.36-.56a15.27,15.27,0,0,0-1-1.31l-.26-.3c-.24-.28-.49-.56-.76-.82s-.31-.27-.47-.41l-.34-.3a14.86,14.86,0,0,0-3.32-2.15l-.32-.15a15.2,15.2,0,0,0-3.86-1.15l-.37-.05a15.58,15.58,0,0,0-2.05-.15H269.18v7.14h6.26v44h32.27a15.58,15.58,0,0,0,2.05-.15l.37,0A15.2,15.2,0,0,0,314,101l.32-.15a16.11,16.11,0,0,0,3.32-2.15l.34-.3.47-.41c.27-.27.51-.54.76-.82l.26-.3a15.27,15.27,0,0,0,1-1.31c.12-.18.25-.37.36-.56.26-.43.51-.88.73-1.33,0,0,0-.09.05-.13s.1-.18.14-.27l.08-.2c.12-.28.21-.56.32-.85a1.19,1.19,0,0,1,.08-.2,12.34,12.34,0,0,0,.42-1.47l0-.13a14.36,14.36,0,0,0,.25-1.46l0-.21a15.25,15.25,0,0,0,.09-1.66h0V66.45h0Zm-8.28,10.8h0c0,2.22,0,4.52,0,6.61V87a8.18,8.18,0,0,1-6.48,8l-.16,0a8.29,8.29,0,0,1-1.5.15H283.75V58.29h22.82a8.29,8.29,0,0,1,1.5.15l.16,0a8.17,8.17,0,0,1,6.48,8v3.14c0,2.09,0,4.39,0,6.62h0C314.73,76.86,314.73,77.24,314.73,77.24Z"/></g></g></svg>
