<svg xmlns="http://www.w3.org/2000/svg" viewBox="0 0 800 102.35"><g data-name="Слой 2"><path d="M783.52 7.14a8.17 8.17 0 0 1 8.16 8.16v35.84H800V15.31A15.33 15.33 0 0 0 784.69 0h-23v7.14zM239.54 87a8.17 8.17 0 0 1-8.16 8.16h-13.84a8.17 8.17 0 0 1-8.16-8.16V51.15h-8.31V87a15.33 15.33 0 0 0 15.3 15.31h16.18A15.33 15.33 0 0 0 247.86 87V51.15h-8.31V87zM79.08 87V51.15h-8.31V87a15.33 15.33 0 0 0 15.31 15.3h23v-7.14H87.25A8.19 8.19 0 0 1 79.08 87zm402.6 0V51.15h-8.31V87a15.33 15.33 0 0 0 15.3 15.31h23v-7.15h-21.83a8.18 8.18 0 0 1-8.16-8.16zm63.74 8.15a8.17 8.17 0 0 1-8.16-8.15V51.15H529V87a15.33 15.33 0 0 0 15.31 15.31h23v-7.15h-21.89zM402.73 49.78a8.79 8.79 0 0 0-8.5 5.55v.07l-5.59 17-5.19 15.6a.42.42 0 0 1-.45.3.42.42 0 0 1-.45-.3l-5.16-15.62-5.59-17v-.07a8.8 8.8 0 0 0-8.5-5.55c-4.6 0-9.54 2.76-9.54 8.82v43.7H362V58.6c0-1.11.36-1.68 1.06-1.68h.24a.44.44 0 0 1 .17.08l.09.08.12.14.15.24a2.17 2.17 0 0 1 .12.26c0 .07.06.13.09.21l.36 1.09L376 93.11a7.58 7.58 0 0 0 7 4.12 7.55 7.55 0 0 0 7-4.12L401.54 59l.36-1 .09-.21c0-.1.08-.18.12-.26a1.25 1.25 0 0 1 .15-.24.58.58 0 0 1 .12-.14l.09-.08a.44.44 0 0 1 .17-.08h.24c.71 0 1.06.56 1.06 1.68v43.7h8.31V58.6c.03-6.06-4.92-8.82-9.52-8.82zm35.91 1.37h8.31v51.14h-8.31zM175.12 68.31v-.78a19.19 19.19 0 0 0-.63-5.46 15.33 15.33 0 0 0-14.66-10.92h-17.72A15.52 15.52 0 0 0 130.93 56c-4.17 4.43-4.16 9.73-4.16 14.86v15.39c0 7.73 4.79 14 11.87 15.65a22 22 0 0 0 5.31.39h13.29c3.77 0 7.73-.33 11.23-2.73A15.51 15.51 0 0 0 175 88.75a27.56 27.56 0 0 0 .11-3.7zm-40.06 5.84c0-2.36-.05-5 0-7.63a8.36 8.36 0 0 1 8.23-8.23h13.39a13.81 13.81 0 0 1 4.52.42 8.29 8.29 0 0 1 2 1L135.15 87.8c-.07-.76-.07-1.55-.07-2.39V78c.01-1.28-.01-2.57-.02-3.85zm31.82 7.76c.13 3.79.28 8.08-2.17 10.53-2.53 2.76-5.84 2.74-9.68 2.71h-10.17a13.35 13.35 0 0 1-3.76-.3 8.3 8.3 0 0 1-2-.88l27.73-27.73v13.2c-.01.77.02 1.61.05 2.47zM31.73 51.17H15.29A15.32 15.32 0 0 0 0 66.48V87a15.32 15.32 0 0 0 15.29 15.31H47v-7.16H16.47A8.17 8.17 0 0 1 8.3 87V66.48a8.18 8.18 0 0 1 8.17-8.17h14.08a8.18 8.18 0 0 1 8.17 8.17v5.15H47v-5.15a15.31 15.31 0 0 0-15.27-15.31zM569.32 29.5h.32c.84 0 3.64-.07 4.68-.07 6.33 0 8.89 3.64 8.89 7.85 0 4.44-3 8.1-9.07 8.1-.84 0-2.92-.05-4.43-.05h-.38V29.5zm3.62 3.39v9a11 11 0 0 0 1.31.05c3.12 0 5.11-1.7 5.11-4.71s-2.15-4.46-5.09-4.46a8.93 8.93 0 0 0-1.33.12zm17.95-3.39h3.62v15.84h-3.62zm18.95 6.81h6.76v7.06a9.15 9.15 0 0 1-5.93 2.24c-5.43 0-8.48-3.26-8.48-8.19 0-4.55 3-8.19 8-8.19a7.79 7.79 0 0 1 5.18 1.65l-1.52 2.92a4.82 4.82 0 0 0-3.23-1.17c-2.6 0-4.61 1.54-4.61 4.79a4.45 4.45 0 0 0 4.68 4.8 4.55 4.55 0 0 0 2.49-.79V39.7h-3.37v-3.39zm14.67-6.81h3.62v15.84h-3.62zm10.63 0h13.12v3.39h-4.75v12.44h-3.62V32.89h-4.75zm24.44 0h3.23l6.58 15.84h-3.87L664.21 42h-6.27l-1.31 3.32H653zm-.27 9.12h3.55l-1.76-4.48zM676 29.5h3.62v12.44H686v3.39h-10zM569.32 72.64V56.81h4.84c4.82 0 6.4 2.51 6.4 5.25s-2.2 5.32-5.86 5.32a16.76 16.76 0 0 1-1.76-.07v5.38h-3.62zm3.62-12.44v3.62a13.06 13.06 0 0 0 1.65.11 1.89 1.89 0 0 0 2.13-1.93c0-1.4-.9-1.83-2.19-1.83-.48-.01-.84.01-1.59.03zM588 72.64V56.81h5.38c4.32 0 5.86 2.15 5.86 5.07a4.79 4.79 0 0 1-2.67 4.57l4.61 6.24h-4.39L593 67.11h-1.33v5.54H588zm3.62-12.44v3.51H593c1.38 0 2.47-.5 2.47-1.83 0-.88-.45-1.72-2.19-1.72-.6 0-.9.02-1.64.04zM615 56.54c4.82 0 8.41 3.14 8.41 8.19a8 8 0 0 1-8.41 8.19c-4.82 0-8.42-3.14-8.42-8.19a8 8 0 0 1 8.42-8.19zm0 13c3 0 4.57-2.13 4.57-4.8a4.58 4.58 0 1 0-9.14 0 4.64 4.64 0 0 0 4.57 4.78zm15.91-12.73h.32c.84 0 3.64-.07 4.68-.07 6.33 0 8.89 3.64 8.89 7.85 0 4.44-3 8.1-9.07 8.1h-4.81V56.81zm3.62 3.39v9h1.31c3.12 0 5.11-1.7 5.11-4.71s-2.15-4.46-5.09-4.46a10.62 10.62 0 0 0-1.33.17zm30.87 5.91c0 4.84-3.08 6.81-6.47 6.81-4.07 0-6.9-2.33-6.9-7v-9.11h3.62v8.37c0 2.47.75 4.34 3.28 4.34 2.2 0 2.85-1.61 2.85-4.14v-8.57h3.62zm20.69 4.97a7.32 7.32 0 0 1-5.16 1.83c-4.91 0-8.3-3.26-8.3-8.19 0-4.55 2.83-8.19 8.28-8.19a7.16 7.16 0 0 1 4.84 1.65l-1.61 2.71a5.65 5.65 0 0 0-3.23-1c-2.44 0-4.44 1.67-4.44 4.79a4.59 4.59 0 0 0 4.8 4.8 5.82 5.82 0 0 0 3.44-1.15zm5.19-14.27h13.12v3.39h-4.75v12.44H696V60.2h-4.75zm20.12 0h3.6v15.84h-3.6zm19.72-.27c4.82 0 8.41 3.14 8.41 8.19a8 8 0 0 1-8.41 8.19c-4.82 0-8.42-3.14-8.42-8.19a8 8 0 0 1 8.42-8.19zm0 13c3 0 4.57-2.13 4.57-4.8a4.58 4.58 0 1 0-9.14 0 4.64 4.64 0 0 0 4.57 4.78zm26.78 3.1l-7.51-9.5v9.5H747V56.81h2.9l7.51 9.55v-9.55h3.39v15.84h-2.9zM323 66.44a15.25 15.25 0 0 0-.09-1.66v-.21a14.36 14.36 0 0 0-.25-1.46v-.13q-.18-.75-.42-1.47a1.19 1.19 0 0 0-.08-.2c-.1-.28-.2-.57-.32-.85l-.08-.2c0-.09-.1-.18-.14-.27s0-.09-.05-.13c-.22-.46-.47-.9-.73-1.33l-.36-.56a15.27 15.27 0 0 0-1-1.31l-.26-.3c-.24-.28-.49-.56-.76-.82s-.31-.27-.47-.41l-.34-.3a14.86 14.86 0 0 0-3.32-2.15l-.32-.15a15.2 15.2 0 0 0-3.86-1.15l-.37-.05a15.58 15.58 0 0 0-2.05-.15h-38.55v7.14h6.26v44h32.27a15.58 15.58 0 0 0 2.05-.15h.37A15.2 15.2 0 0 0 314 101l.32-.15a16.11 16.11 0 0 0 3.32-2.15l.34-.3.47-.41c.27-.27.51-.54.76-.82l.26-.3a15.27 15.27 0 0 0 1-1.31c.12-.18.25-.37.36-.56.26-.43.51-.88.73-1.33 0 0 0-.09.05-.13s.1-.18.14-.27l.08-.2c.12-.28.21-.56.32-.85a1.19 1.19 0 0 1 .08-.2 12.34 12.34 0 0 0 .42-1.47v-.13a14.36 14.36 0 0 0 .25-1.46v-.21a15.25 15.25 0 0 0 .09-1.66V66.45zm-8.28 10.8V87a8.18 8.18 0 0 1-6.48 8h-.16a8.29 8.29 0 0 1-1.5.15h-22.83V58.29h22.82a8.29 8.29 0 0 1 1.5.15h.16a8.17 8.17 0 0 1 6.48 8v9.76c.02.66.02 1.04.02 1.04z" fill="#fff" data-name="Слой 1"/></g></svg>