<svg xmlns="http://www.w3.org/2000/svg" viewBox="0 0 93.05 133.33"><defs><style>.cls-1{fill:#ff6f61;}</style></defs><title>sign_1</title><g id="Слой_2" data-name="Слой 2"><g id="Слой_1-2" data-name="Слой 1"><path class="cls-1" d="M31.4,48.07c-5.62-8.49-8.84-19.52-8.55-31.63a67.06,67.06,0,0,1,7.94-6c-2.09,12-.52,23.35,3.79,32.59A41.42,41.42,0,0,1,59.67,55.81,13.4,13.4,0,0,0,58.13,57,41.57,41.57,0,0,0,31.4,48.07Zm13.84,52.14a41.52,41.52,0,0,1,11-25.93c-.41-.57-1.05-1.68-1-1.62a41.35,41.35,0,0,0-14.68,24A54.82,54.82,0,0,1,7.77,97.9,67.51,67.51,0,0,0,13,106.26C25.09,107.5,36.33,105.14,45.24,100.21Zm16.11-45.3a12.92,12.92,0,0,1,1.78-.63,41.09,41.09,0,0,0-20.2-19.56c-1.43-10.1.43-21.49,6-32.32a65.75,65.75,0,0,0-9.41,3.37,54.74,54.74,0,0,0-1.13,32.79A41.26,41.26,0,0,1,61.35,54.91Zm18.28,51.52L72.29,93l-3.67-6.72-1.83-3.37-.23-.42a2.23,2.23,0,0,1-.1-.43l-.17-.86q-.15-.84-.27-1.68a12.13,12.13,0,0,1-1.92-.21,39.34,39.34,0,0,0,.53,6.86A43.52,43.52,0,0,0,66.42,93c2.33,4.5,4.86,9,7.28,13.46-2.47,4.48-4.83,9-7.4,13.44a67.47,67.47,0,0,1-5.53,6.45,68.8,68.8,0,0,1-6.72,5.81,96.62,96.62,0,0,0,9.85,1.1l1.56-1.62.75-.81c.11-.14.25-.27.35-.41l.23-.42,1.83-3.36,3.67-6.73ZM27,71a41.33,41.33,0,0,1,27.1-7.67c.19-.68.64-1.85.6-1.79a41,41,0,0,0-27.88,3.54C18.1,59.92,10.39,51.38,5.42,40.31a66.52,66.52,0,0,0-3.23,9.38A54.76,54.76,0,0,0,27,71ZM85.56,53.8h5.93L76.82,26.9,91.49,0H85.56L70.89,26.9ZM13.7,92a52.07,52.07,0,0,0,22.62.43,42.54,42.54,0,0,1,11.43-16.8A39,39,0,0,1,51,73.11a40.34,40.34,0,0,1,3.48-2.19l-.5-1.82A39.57,39.57,0,0,0,38,80.38c-1,1.1-1.9,2.29-2.75,3.5s-1.62,2.47-2.37,3.8c-1.51.09-3.06.11-4.65.07s-3.09-.21-4.68-.42A56.87,56.87,0,0,1,1.19,79.2a66.43,66.43,0,0,0,2.58,9.57q2.46,1,4.88,1.87C10.31,91.2,12,91.65,13.7,92Zm0-50.75A51.68,51.68,0,0,0,27.5,59.22a42.36,42.36,0,0,1,20.25-1.56,38.57,38.57,0,0,1,4,.9c1.34.39,2.63.84,3.88,1.34a13.48,13.48,0,0,1,1.13-1.56A40,40,0,0,0,38,53a44.09,44.09,0,0,0-4.45,0c-1.45.1-2.94.28-4.45.52-1-1.13-2-2.32-2.95-3.59S24.34,47.38,23.5,46a57.41,57.41,0,0,1-7.62-22.5,67.57,67.57,0,0,0-5.84,8q.73,2.58,1.6,5C12.25,38.12,13,39.75,13.7,41.29Zm48,74.34a53.11,53.11,0,0,0,6.07-9.2,48.48,48.48,0,0,1-4.23-9.59,45.58,45.58,0,0,1-1.17-5A34.64,34.64,0,0,1,61.81,87a37.19,37.19,0,0,1,.47-8.18A13,13,0,0,1,60.53,78h0a38.87,38.87,0,0,0-1.8,9.49,41.85,41.85,0,0,0,0,5,44.71,44.71,0,0,0,.63,5,33.11,33.11,0,0,0,1,4.29c.42,1.42.91,2.84,1.47,4.28C61,107.35,60,108.56,59,109.75a37.82,37.82,0,0,1-3.26,3.43c-1.35,1.28-2.81,2.53-4.36,3.75a56.86,56.86,0,0,1-4.87,3.3,60.29,60.29,0,0,1-11.15,5.3,66.29,66.29,0,0,0,9.08,4,59,59,0,0,0,8.85-5.75,46.72,46.72,0,0,0,4.5-3.93A56.7,56.7,0,0,0,61.7,115.63ZM56,105a41.25,41.25,0,0,1,2.89-28c-.64-.47-1.57-1.36-1.49-1.25a41.46,41.46,0,0,0-7,27.26c-8.07,6.21-18.86,10.19-31,10.76A66.38,66.38,0,0,0,27,120.22C38.87,117.89,49,112.34,56,105Zm32.64,28.35,4.37-8V114.45l-10.3,18.88ZM93.05,8,82.75,26.9l10.3,18.89V34.92l-4.37-8,4.37-8ZM82.75,79.53l10.3,18.89V87.54l-4.37-8Zm-29-12.34c0-.18,0-.35,0-.52h0c0-.56.09-1.51.08-1.45A41.75,41.75,0,0,0,28.14,76.85C18.26,74.43,8.42,68.53.39,59.5A67.72,67.72,0,0,0,0,66.67H0c0,.89,0,1.78.07,2.67,9.24,7.77,19.85,12.22,30,13.11A41.4,41.4,0,0,1,53.72,67.19Zm23.1,12.34H70.89l14.67,26.9-14.67,26.9h5.93l14.67-26.9ZM62.06,20.4a53.15,53.15,0,0,0-3,7.23,48.29,48.29,0,0,1,4.27,6.16,47.87,47.87,0,0,1,3.08,6.57c2.33,4.47,4.86,9,7.28,13.44h5.93L65,27c4.89-9.13,9.78-18,14.67-27H73.7c-2.47,4.49-4.83,9-7.4,13.46A63.06,63.06,0,0,0,62.06,20.4ZM55.93,38.3a40,40,0,0,1,3.21,3.86,46,46,0,0,1,2.67,4.2,34.77,34.77,0,0,1,1.8,3.73A39,39,0,0,1,65,53.91a13.32,13.32,0,0,1,1.56-.11h1.22c-.41-.78-.89-1.57-1.25-2.35-.17-.77-.36-1.54-.58-2.31a43.89,43.89,0,0,0-1.62-4.67A41.33,41.33,0,0,0,62.13,40a37.16,37.16,0,0,0-2.77-4.27,43.73,43.73,0,0,0-6-6.58,47.14,47.14,0,0,1,2.38-9A44.29,44.29,0,0,1,58,14.9c.86-1.72,1.83-3.47,2.9-5.18s2.26-3.29,3.53-4.92c.64-.81,1.31-1.63,2-2.44C67,1.57,67.32.79,67.77,0h-1.1a67.37,67.37,0,0,0-8,.49Q57.12,2.72,55.77,5a44.83,44.83,0,0,0-2.48,4.58C52.42,11.4,51.64,13.23,51,15a52.66,52.66,0,0,0-1.65,5.57,48.89,48.89,0,0,0-1.4,10.93A44.36,44.36,0,0,1,55.93,38.3Z"/></g></g></svg>
