<svg xmlns="http://www.w3.org/2000/svg" viewBox="0 0 29.95 31.7"><g data-name="Слой 2"><path d="M29.94 10.63v-.48a11.68 11.68 0 0 0-.39-3.38A9.47 9.47 0 0 0 20.47 0h-11a9.57 9.57 0 0 0-6.9 3C0 5.73 0 9 0 12.19v9.55a9.64 9.64 0 0 0 7.35 9.69 14 14 0 0 0 3.29.24h8.23a11.79 11.79 0 0 0 7-1.69 9.63 9.63 0 0 0 4.06-6.73A18.16 18.16 0 0 0 30 21zm-24.8 3.61V9.52a5.17 5.17 0 0 1 5.1-5.09h8.27a8.76 8.76 0 0 1 2.8.26 5.12 5.12 0 0 1 1.26.63L5.19 22.7v-6.07c-.04-.79-.04-1.63-.05-2.39zm19.7 4.81c.08 2.35.17 5-1.35 6.52-1.56 1.71-3.61 1.7-6 1.68H11.2a8.51 8.51 0 0 1-2.33-.18 5.27 5.27 0 0 1-1.24-.55L24.8 9.35v8.16c0 .49.02 1.01.04 1.54z" data-name="Режим изоляции"/></g></svg>