<svg xmlns="http://www.w3.org/2000/svg" viewBox="0 0 186.63 130.24"><defs><style>.cls-1{fill:#fff}</style></defs><g id="Слой_2" data-name="Слой 2"><g id="Слой_1-2" data-name="Слой 1"><path class="cls-1" d="M60.29 81.84c-12.93 6-28.87 8.24-45.61 5.3A92.56 92.56 0 0 0 23 98.25c16.94.41 32.38-4.1 44.26-12-.15-14.25 4.45-27.46 12.47-37.37a17.81 17.81 0 0 1-1.61-2.16c-9.4 8.59-15.88 20.96-17.83 35.12zm79.98-14.92C126 66 113.21 60.35 104 51.57c-.79.59-2.34 1.48-2.27 1.45 7.81 10.06 19.64 17.49 33.61 20.54 5 13.34 5.95 29.38 1.72 45.81a94.8 94.8 0 0 0 11.7-7.37c1.71-16.87-1.59-32.61-8.49-45.08z"/><path class="cls-1" d="M8.08 74.89c16.11 5.44 32.21 5.62 45.92 1.58 4-13.74 12.27-25 22.89-32.1a16.33 16.33 0 0 1-.89-2.49c-11.56 5.39-21.4 15.3-27.4 28.27-14.14 2-30.09-.6-45.24-8.42a92.28 92.28 0 0 0 4.72 13.16zm175.01-37.32a6.55 6.55 0 0 0-.58-.49l-.59-.32-4.7-2.57-9.41-5.14L149 18.78l-18.85 10.27-9.42 5.14-4.73 2.57-.59.32a4.34 4.34 0 0 1-.6.14l-1.21.24c-.78.14-1.57.26-2.35.37a17.16 17.16 0 0 1-.3 2.7 55.48 55.48 0 0 0 9.61-.74 61.65 61.65 0 0 0 9.55-2.52c6.3-3.25 12.56-6.8 18.84-10.18 6.27 3.45 12.56 6.76 18.81 10.35a96 96 0 0 1 9 7.74 94.3 94.3 0 0 1 8.12 9.41 133.21 133.21 0 0 0 1.55-13.78l-2.26-2.18zM99.42 92.42c-8.18-11.77-11.86-25.26-10.73-37.95-1-.25-2.59-.89-2.51-.83-3 12.36-1.43 26.22 4.95 39-7.25 12.26-19.21 23-34.71 30a91.59 91.59 0 0 0 13.13 4.52C83.86 118 94 105.56 99.42 92.42zM75.31 10.48v-8.3L37.66 22.72 0 2.18v8.3l37.66 20.54 37.65-20.54zm21.41 44.28a55.37 55.37 0 0 0 15.8 22.37c1.53 1.31 3.19 2.65 4.89 3.84s3.46 2.27 5.33 3.32c.11 2.12.15 4.29.09 6.5s-.3 4.32-.59 6.55a79.6 79.6 0 0 1-11.39 31.23 92.25 92.25 0 0 0 13.41-3.57q1.45-3.45 2.62-6.83c.77-2.33 1.4-4.75 2-7.07a72.54 72.54 0 0 0 .6-31.65 59.7 59.7 0 0 1-23.51-16 54.72 54.72 0 0 1-3.59-4.49q-1.68-2.4-3.06-4.86"/><path class="cls-1" d="M51.05 114c2.31-.85 4.59-1.87 6.75-2.89a72.62 72.62 0 0 0 25.1-19.3 59.22 59.22 0 0 1-2.19-28.35A51.68 51.68 0 0 1 82 57.81a55.88 55.88 0 0 1 1.87-5.43 17.87 17.87 0 0 1-2.18-1.59 56.06 56.06 0 0 0-7.54 26.34 61.57 61.57 0 0 0 .06 6.22q.21 3.06.72 6.23c-1.57 1.42-3.25 2.8-5 4.13s-3.56 2.47-5.48 3.64A80.26 80.26 0 0 1 32.9 108a93.67 93.67 0 0 0 11.18 8.18c2.4-.67 4.73-1.42 6.97-2.18zm107.37-61.78c1.79 1.9 3.55 3.93 5.24 6.1a76.92 76.92 0 0 1 4.63 6.82 85.27 85.27 0 0 1 7.42 15.6A94.22 94.22 0 0 0 181.3 68a83.28 83.28 0 0 0-8.05-12.4 64.64 64.64 0 0 0-5.51-6.28 79.2 79.2 0 0 0-5.89-5.49A75.27 75.27 0 0 0 149 35.38a67.44 67.44 0 0 1-13.43 5.92 63.77 63.77 0 0 1-6.96 1.7 50.47 50.47 0 0 1-6.88.78 52.71 52.71 0 0 1-11.45-.67 19.19 19.19 0 0 1-1.06 2.46A54.37 54.37 0 0 0 122.51 48a58.69 58.69 0 0 0 7 0 65.52 65.52 0 0 0 7-.88 49.18 49.18 0 0 0 6-1.43c2-.59 4-1.27 6-2.06 1.71 1.23 3.4 2.55 5.07 4a53.23 53.23 0 0 1 4.84 4.59z"/><path class="cls-1" d="M147 51.8a57.77 57.77 0 0 1-39.16-4c-.65.89-1.9 2.2-1.75 2.08a58 58 0 0 0 38.15 9.78c8.7 11.3 14.28 26.4 15.07 43.32a93.42 93.42 0 0 0 9-10.44C165 75.83 157.25 61.68 147 51.8zm39.63-45.68L175.41 0h-15.22l26.44 14.42v-8.3zM64.09 0H48.88L37.66 6.12 26.43 0H11.22l26.44 14.42L64.09 0zm47.23 14.42L137.76 0h-15.22l-11.22 6.12v8.3zm4.09 73.77A58 58 0 0 1 94 55.06h-.72c-.78 0-2.11-.13-2-.11a58.34 58.34 0 0 0 16.27 35.87c-3.39 13.83-11.64 27.6-24.29 38.85a95 95 0 0 0 10 .54c1.25 0 2.5 0 3.74-.09 10.94-12.9 17.15-27.76 18.41-41.93zm33.57-86.01l-37.66 20.54v8.3l37.66-20.54 37.65 20.54v-8.3L148.98 2.18zM28.55 43.38a74.4 74.4 0 0 0 10.12 4.18 68.53 68.53 0 0 1 8.63-6 67.18 67.18 0 0 1 9.19-4.31C62.75 34 69 30.47 75.31 27.08v-8.3L37.77 39.32C25 32.48 12.6 25.63 0 18.78v8.3c6.28 3.46 12.54 6.77 18.84 10.36a87.35 87.35 0 0 0 9.71 5.94z"/><path class="cls-1" d="M7 52.18a64.76 64.76 0 0 0 6.41 3.47C16 56.88 18.52 58 21.05 58.9a73.56 73.56 0 0 0 7.8 2.31 69 69 0 0 0 15.3 1.95A61.82 61.82 0 0 1 53.61 52 55.74 55.74 0 0 1 59 47.46a62.59 62.59 0 0 1 5.87-3.73 49.37 49.37 0 0 1 5.22-2.52 54.62 54.62 0 0 1 5.35-1.93 17.64 17.64 0 0 1-.15-2.19v-1.7c-1.1.58-2.21 1.25-3.3 1.75-1.07.24-2.15.5-3.23.81a61.56 61.56 0 0 0-6.52 2.26 59.57 59.57 0 0 0-6.21 3.07 51.09 51.09 0 0 0-6 3.89 61.06 61.06 0 0 0-9.21 8.39 66.23 66.23 0 0 1-12.65-3.34 61.13 61.13 0 0 1-7.3-3.22c-2.41-1.18-4.87-2.53-7.26-4S9 41.82 6.73 40c-1.14-.9-2.29-1.82-3.42-2.79C2.2 36.54 1.11 36 0 35.39v1.54a93.07 93.07 0 0 0 .69 11.14c2.08 1.48 4.18 2.85 6.31 4.11z"/></g></g></svg>