<svg xmlns="http://www.w3.org/2000/svg" viewBox="0 0 39.56 39.56"><defs><style>.cls-1{fill: #fff;}</style></defs><title>Target</title><g id="Слой_2" data-name="Слой 2"><g id="Capa_1" data-name="Capa 1"><g id="Target"><path class="cls-1" d="M19.78,34.54A14.83,14.83,0,1,1,34.61,19.71,14.84,14.84,0,0,1,19.78,34.54Zm0-28.86a14,14,0,1,0,14,14A14,14,0,0,0,19.78,5.68Z"/><path class="cls-1" d="M19.78,39.56a.4.4,0,0,1-.4-.4V27.38a.4.4,0,0,1,.8,0V39.16A.4.4,0,0,1,19.78,39.56Z"/><path class="cls-1" d="M19.78,12.44a.4.4,0,0,1-.4-.4V.4a.4.4,0,0,1,.8,0V12A.4.4,0,0,1,19.78,12.44Z"/><path class="cls-1" d="M12.11,20.11H.4a.4.4,0,0,1,0-.8H12.11a.4.4,0,0,1,0,.8Z"/><path class="cls-1" d="M39.16,20.11H27.45a.4.4,0,0,1,0-.8H39.16a.4.4,0,1,1,0,.8Z"/><circle class="cls-1" cx="19.78" cy="19.71" r="0.84"/></g></g></g></svg>
