<svg xmlns="http://www.w3.org/2000/svg" viewBox="0 0 39.56 39.56"><defs><style>.cls-1{fill:#fff}</style></defs><g id="Слой_2" data-name="Слой 2"><g id="Capa_1" data-name="Capa 1"><g id="Target"><path class="cls-1" d="M19.78 34.54a14.83 14.83 0 1 1 14.83-14.83 14.84 14.84 0 0 1-14.83 14.83zm0-28.86a14 14 0 1 0 14 14 14 14 0 0 0-14-14z"/><path class="cls-1" d="M19.78 39.56a.4.4 0 0 1-.4-.4V27.38a.4.4 0 0 1 .8 0v11.78a.4.4 0 0 1-.4.4zm0-27.12a.4.4 0 0 1-.4-.4V.4a.4.4 0 0 1 .8 0V12a.4.4 0 0 1-.4.44zm-7.67 7.67H.4a.4.4 0 0 1 0-.8h11.71a.4.4 0 0 1 0 .8zm27.05 0H27.45a.4.4 0 0 1 0-.8h11.71a.4.4 0 1 1 0 .8z"/><circle class="cls-1" cx="19.78" cy="19.71" r=".84"/></g></g></g></svg>