<svg xmlns="http://www.w3.org/2000/svg" viewBox="0 0 972.33 216.72"><defs><style>.cls-1{fill:#ff6f61;}</style></defs><title>word_2</title><g id="Слой_2" data-name="Слой 2"><g id="Слой_1-2" data-name="Слой 1"><path class="cls-1" d="M0,144.94,11.17,131.4C21.86,144,39.68,152.07,53.22,152.07,74.85,152.07,91,140.9,91,120.23c0-16.39-11.88-27.09-32.55-27.09H39.21v-19H57a27.82,27.82,0,0,0,27.56-28C84.59,28,71.52,19,54.41,19,38,19,26.61,25.66,16.63,37.54L4.75,24.24C15.92,9.74,34.93,0,56.55,0c28.75,0,48.24,15.92,48.24,44.2,0,14-7.85,29.7-24,38v.72c20.19,3.8,30.41,20.19,30.41,39.2,0,30.65-26.37,49-56.79,49C29,171.08,8.79,158.25,0,144.94Z"/><path class="cls-1" d="M170.13,170.87c-20.23,0-33.29-13.16-33.29-33.53,0-21,16-34.48,40.89-34.48,4,0,17.25.47,26.11,6.43C203.72,88.83,199.65,77,180.11,77c-13.4,0-21.16,3.53-29.23,7.78l-.53.28-5.29-16.14.33-.21c10-6.24,23.07-9.82,35.91-9.82,28.77,0,41.6,13.64,41.6,44.22V169.2H203.84V156.32C195.58,166.1,184.54,170.87,170.13,170.87Zm7.6-67c-24.23,0-39.89,13.14-39.89,33.48,0,19.76,12.67,32.53,32.29,32.53,14.61,0,25.67-5,33.82-15.26l.89-1.12V168.2H221.9V103.12c0-29.89-12.52-43.22-40.6-43.22-12.52,0-25.26,3.45-35.05,9.46l4.68,14.27c7.73-4,15.87-7.62,29.18-7.62,20.69,0,24.73,12.56,24.73,34.24v1l-.79-.59C195.45,104.35,181.73,103.86,177.73,103.86Zm-.95,49.9c-12.36,0-19.75-6.49-19.75-17.37,0-8.34,6.11-18.09,23.32-18.09,9.4,0,17.58,2.43,24.28,7.23l.21.15v14l-.12.14C199.19,146.3,191,153.76,176.78,153.76Zm3.57-34.46c-10.3,0-22.32,4.48-22.32,17.09,0,10.25,7,16.37,18.75,16.37,13.72,0,21.67-7.17,27.06-13.47v-13.1C197.35,121.62,189.44,119.3,180.35,119.3Z"/><path class="cls-1" d="M273.75,216.72h-20V61.28h20V73.07c8-8.52,22.2-14.17,35.85-14.17,29.87,0,49.93,22,49.93,54.68,0,16.11-5.46,30.78-15.38,41.3-10.29,10.92-24.37,16.7-40.72,16.7-11.89,0-22.38-2.47-29.68-7Zm-19-1h18V162.79l.77.5c7.06,4.63,18,7.29,29.91,7.29,16.06,0,29.89-5.67,40-16.39,9.74-10.33,15.1-24.75,15.1-40.61,0-32.11-19.66-53.68-48.93-53.68-13.89,0-28.35,5.95-36,14.8l-.88,1V62.28h-18Zm47-62c-11.45,0-20.06-2.51-28.79-8.4l-.22-.15V91.78l.11-.14a40.9,40.9,0,0,1,31.28-14.92c21.38,0,35.19,14.75,35.19,37.57C339.33,137.9,324.23,153.76,301.76,153.76Zm-28-9.08c8.47,5.66,16.87,8.08,28,8.08,21.88,0,36.57-15.46,36.57-38.47,0-22.21-13.42-36.57-34.19-36.57a39.89,39.89,0,0,0-30.39,14.41Z"/><path class="cls-1" d="M461.94,169.2h-20V133.56H422L395.88,169.2H371.56l31.05-40.59c-11.07-3-22.69-13.87-22.69-31.19,0-10.87,4.7-36.14,48.26-36.14h33.76Zm-19-1h18V62.28H428.18c-30,0-47.26,12.81-47.26,35.14,0,17.16,11.74,27.79,22.66,30.4l.75.18-30.74,40.2h21.78l26.14-35.64h21.42Zm0-52.46H420.57c-9.84,0-20.46-6.82-20.46-17.84,0-12,9.11-18.8,25-18.8h17.84ZM425.09,80.1c-20.86,0-24,11.15-24,17.8,0,10.4,10.1,16.84,19.46,16.84h21.36V80.1Z"/><path class="cls-1" d="M637.56,169.2H612.78l-.15-.21-39.89-55.65.21-.29,37-51.77h24.78L595.6,113.34Zm-24.27-1h22.27l-41.21-54.86.23-.3,38.13-50.76H610.44L574,113.34Zm-44.19,1h-20V61.28h20Zm-19-1h18V62.28h-18Zm-44.19,1H481.36l41.24-55.86L483.49,61.28h25l.15.21,36.8,51.85-.21.29Zm-22.56-1h22l38.85-54.86L508,62.28h-22.5l38.35,51.06Z"/><path class="cls-1" d="M682.42,170.87c-20.23,0-33.29-13.16-33.29-33.53,0-21,16-34.48,40.89-34.48,4,0,17.25.47,26.11,6.43C716,88.83,711.94,77,692.4,77c-13.4,0-21.17,3.53-29.23,7.78l-.53.28-5.29-16.14.33-.21c10-6.24,23.07-9.82,35.9-9.82,28.78,0,41.61,13.64,41.61,44.22V169.2H716.13V156.32C707.87,166.1,696.82,170.87,682.42,170.87Zm7.6-67c-24.23,0-39.89,13.14-39.89,33.48,0,19.76,12.67,32.53,32.29,32.53,14.6,0,25.67-5,33.82-15.26l.89-1.12V168.2h17.06V103.12c0-29.89-12.52-43.22-40.61-43.22-12.51,0-25.25,3.45-35,9.46l4.68,14.27C671,79.58,679.09,76,692.4,76c20.69,0,24.73,12.56,24.73,34.24v1l-.79-.59C707.74,104.35,694,103.86,690,103.86Zm-.95,49.9c-12.36,0-19.75-6.49-19.75-17.37,0-8.34,6.11-18.09,23.31-18.09,9.41,0,17.58,2.43,24.29,7.23l.21.15v14l-.12.14C711.48,146.3,703.3,153.76,689.07,153.76Zm3.56-34.46c-10.29,0-22.31,4.48-22.31,17.09,0,10.25,7,16.37,18.75,16.37,13.72,0,21.67-7.17,27.06-13.47v-13.1C709.64,121.62,701.73,119.3,692.63,119.3Z"/><path class="cls-1" d="M816.67,171.58c-35.09,0-57.77-22.12-57.77-56.34,0-33.7,22.36-56.34,55.63-56.34,29.06,0,50.16,20.8,50.16,49.45a63,63,0,0,1-1.2,12.94l-.09.39H781.33c1.82,19.19,15.86,31.08,36.76,31.08,12.71,0,25.14-4.23,32.45-11l.54-.49,6.33,16-.25.23C847.41,166.29,832.27,171.58,816.67,171.58ZM814.53,59.9c-32.68,0-54.63,22.24-54.63,55.34,0,33.62,22.28,55.34,56.77,55.34,15.23,0,30-5.1,39.56-13.66l-5.55-14c-7.55,6.68-19.95,10.81-32.59,10.81-21.66,0-36.15-12.47-37.8-32.54l0-.54h82.35a62.05,62.05,0,0,0,1.1-12.33C863.69,80.28,843,59.9,814.53,59.9ZM845,106.24H779l.07-.57c2.3-17.58,15.83-28.95,34.48-28.95s30.4,10.84,31.39,29Zm-64.82-1h63.77C842.79,88,831.48,77.72,813.58,77.72S782.61,88.5,780.17,105.24Z"/><path class="cls-1" d="M933.12,169.2h-20V81.29h-39.2v-20h98.42v20H933.12Zm-19-1h18V80.29h39.21v-18H874.91v18h39.2Z"/></g></g></svg>