<svg xmlns="http://www.w3.org/2000/svg" viewBox="0 0 498 197.2"><path d="M0 0h20.2v147.3h89.1V0h20.2v147.3h22.6v49.9h-19v-30.9H0V0zm221.5 168.9c-17.1 0-31.5-5.3-41.8-15.3-10.3-10-15.7-24.1-15.7-40.7 0-33.5 22.3-56.1 55.4-56.1 13.7 0 26.2 4.8 35.3 13.5 9.4 9 14.6 21.7 14.6 35.7 0 4.3-.4 8.7-1.2 12.9v.2h-82.2c1.7 19.5 15.9 31.6 37 31.6 12.8 0 25.3-4.3 32.6-11.1l.3-.2 6.1 15.4-.1.1c-9.7 8.8-24.8 14-40.3 14zm-2.2-111.6c-32.8 0-54.9 22.3-54.9 55.6 0 16.5 5.4 30.5 15.5 40.4 10.2 9.9 24.5 15.2 41.5 15.2 15.4 0 30.3-5.2 39.9-13.8l-5.7-14.4c-7.5 6.8-20 11-32.7 11-21.5 0-35.9-12.4-37.5-32.3v-.3h82.3c.8-4.1 1.2-8.4 1.1-12.6 0-13.9-5.1-26.5-14.4-35.4-9.1-8.7-21.5-13.4-35.1-13.4zm30.2 46.3h-65.4v-.3c2.3-17.5 15.7-28.7 34.2-28.7 18.5 0 30.2 10.7 31.1 28.7l.1.3zm-64.8-.5H249c-1.1-17.5-12.5-28-30.6-28-18.2 0-31.4 11-33.7 28zM282 168h-.2l-1.5-19.1h.3c2.4.2 6.1-.3 10-3.7 6.1-5.3 13.8-18.8 15.6-52.6l1.9-33.5H383v107.4h-19.5V78.6h-37.1l-1.2 17.8C320.6 156 305.3 168 282 168zm-1.1-18.5l1.4 18c22.8-.1 37.9-12.1 42.5-71l1.2-18.3h38v87.9h18.5V59.7h-73.9l-1.9 33c-1 18.8-4.5 43.2-15.8 53-3.8 3.4-7.5 3.9-10 3.8zm172.2 17.1h-36.4V59.2h19.5v32.1h19.2c35.2 0 42.5 20.2 42.5 37.1 0 7.4-1.7 17.9-9.8 26.2-7.6 7.9-19.4 12-35 12zm-35.9-.5h35.9c15.4 0 27.1-4 34.8-11.9 7.9-8.2 9.6-18.6 9.6-25.9 0-16.7-7.3-36.6-42-36.6h-19.8v-32h-18.5v106.4zm34.5-17.3h-16V109h16.2c17.7 0 25.9 6.3 25.9 20 0 13.5-8.3 19.8-26.1 19.8zm-15.5-.5h15.5c17.7 0 25.6-5.9 25.6-19.2 0-13.3-8.1-19.5-25.4-19.5h-15.7v38.7z" fill="#ff6f61"/></svg>