<svg xmlns="http://www.w3.org/2000/svg" viewBox="0 0 546.53 349.92"><defs><style>.cls-1{fill:#ff6f61;}</style></defs><title>v_chem_sila_brat</title><g id="Слой_2" data-name="Слой 2"><g id="Слой_1-2" data-name="Слой 1"><path class="cls-1" d="M46.1,168.75c-15.06,0-35.27-.49-44.7-.95l-.47,0V1h.49L8.28.76C18.8.46,34.7,0,47.05,0c44.6,0,54,22.63,54,41.61C101,60,90.85,74.06,73.1,80.25,94.63,84.1,107,98.54,107,120,107,151,84.77,168.75,46.1,168.75ZM1.93,166.83c9.6.45,29.37.92,44.17.92,38,0,59.85-17.4,59.85-47.73,0-21.27-12.4-35.47-34-38.95L71.5,81V79.74l.34-.12c10.52-3.45,28.17-13,28.17-38C100,8,71.21,1,47.05,1c-12.33,0-28.23.46-38.74.76l-6.38.18Zm45.36-17.09c-9.68,0-20.26-.47-25.71-1l-.46,0V91.24H48.47c24.69,0,38.28,9.8,38.28,27.59C86.75,138.77,72.74,149.74,47.29,149.74Zm-25.17-1.91c5.44.45,15.89.91,25.17.91,25.16,0,38.46-10.34,38.46-29.91,0-17.15-13.24-26.59-37.28-26.59H22.12ZM48.24,74.42H21.12V19.74l3-.12C30,19.38,38.9,19,46.57,19,69,19,80.81,28.38,80.81,46.12,80.81,63.05,67.72,74.42,48.24,74.42Zm-26.12-1H48.24C64,73.42,79.81,65,79.81,46.12,79.81,29,68.32,20,46.57,20c-7.64,0-16.54.37-22.43.61l-2,.08Z"/><path class="cls-1" d="M274.46,168h-20V126.85c-7.88,4.74-18.46,7.45-29.21,7.45-25.91,0-38.51-13.53-38.51-41.37V60.12h21.19V90.79c0,16.15,7.8,24.69,22.55,24.69,10.76,0,19.58-3.42,24-6.42V60.12h20Zm-19-1h18V61.12h-18v48.47l-.22.14c-4.65,3.27-13.6,6.75-24.76,6.75-15.4,0-23.55-8.88-23.55-25.69V61.12H187.74V92.93c0,27.16,12.27,40.37,37.51,40.37,10.92,0,21.65-2.83,29.44-7.76l.77-.49Z"/><path class="cls-1" d="M358.32,170.42c-35.09,0-57.77-22.12-57.77-56.34,0-33.7,22.36-56.34,55.63-56.34,29.06,0,50.16,20.8,50.16,49.45a62.12,62.12,0,0,1-1.2,12.93l-.09.4H323c1.82,19.18,15.86,31.08,36.76,31.08,12.71,0,25.14-4.23,32.45-11l.54-.5,6.33,16-.25.23C389.06,165.13,373.93,170.42,358.32,170.42ZM356.18,58.74c-32.68,0-54.63,22.24-54.63,55.34,0,33.61,22.28,55.34,56.77,55.34,15.23,0,30-5.1,39.56-13.66l-5.55-14c-7.54,6.69-19.95,10.82-32.59,10.82-21.66,0-36.15-12.47-37.8-32.54l-.05-.54h82.35a62.12,62.12,0,0,0,1.1-12.33C405.34,79.11,384.66,58.74,356.18,58.74Zm30.46,46.33h-66l.07-.56c2.3-17.59,15.83-28.95,34.48-28.95s30.4,10.84,31.39,29Zm-64.82-1h63.77c-1.15-17.24-12.46-27.51-30.36-27.51S324.26,87.34,321.82,104.07Z"/><path class="cls-1" d="M546.53,168h-20V91.11L490.2,139.76H489L451.25,91.07v77h-20V60.12h18.09l40.85,52.65L528.9,60.12h17.63Zm-19-1h18V61.12H529.41L490.2,114.43,448.84,61.12h-16.6V167h18V88.14l39.23,50.62h.22L527.52,88.1Z"/><path class="cls-1" d="M98.37,332.1c-9,11.64-24.71,17.82-41.11,17.82-34,0-57.26-22.1-57.26-55.84C0,263,22.81,238.24,54.18,238.24c17.1,0,32.07,4,42.05,14l-8.79,15c-9-8.32-19.48-11.17-30.65-11.17-19.25,0-36.59,15.44-36.59,38,0,23.52,17.34,38,38.49,38a40.55,40.55,0,0,0,30.65-13.79Z"/><path class="cls-1" d="M123.08,347.54V240.62h19v79.59l61.78-79.59h19V347.54h-19v-79.6l-61.78,79.6Z"/><path class="cls-1" d="M330.51,259.62H293l-1.19,18.06C287,338.51,270.87,349,248.78,349l-1.43-18.54c8.08.71,23.29-7.13,25.9-56.55l1.9-33.26h74.37V347.54h-19Z"/><path class="cls-1" d="M384.45,248c9.51-5.94,22.34-9.74,35.64-9.74,30.42,0,41.11,15.92,41.11,43.72v65.58H443.14V333.76c-6.41,8.08-16.63,15.44-34.21,15.44-19.49,0-32.79-12.35-32.79-33,0-21.86,17.34-34,40.39-34,8.32,0,19.48,1.66,26.61,6.89,0-20-3.09-33.74-24.23-33.74-13.07,0-20.91,3.32-29.47,7.84Zm58.69,70.33V304.77c-6.65-4.75-14.73-7.13-24-7.13-11.4,0-22.81,5.23-22.81,17.59,0,10.21,6.89,16.87,19.25,16.87C429.6,332.1,437.68,324.73,443.14,318.31Z"/></g></g></svg>