<?xml version="1.0" encoding="utf-8"?>
<!-- Generator: Adobe Illustrator 22.0.0, SVG Export Plug-In . SVG Version: 6.00 Build 0)  -->
<svg version="1.1" id="Слой_1" xmlns="http://www.w3.org/2000/svg" xmlns:xlink="http://www.w3.org/1999/xlink" x="0px" y="0px"
	 viewBox="0 0 498 197.2" style="enable-background:new 0 0 498 197.2;" xml:space="preserve">
<style type="text/css">
	.st0{fill:#FF6F61;}
</style>
<title>word_1</title>
<g id="Слой_2_1_">
	<g id="Слой_1-2">
		<g>
			<path class="st0" d="M0,0h20.2v147.3h89.1V0h20.2v147.3h22.6v49.9h-19v-30.9H0V0z"/>
		</g>
		<g>
			<path class="st0" d="M221.5,168.9c-17.1,0-31.5-5.3-41.8-15.3c-10.3-10-15.7-24.1-15.7-40.7c0-33.5,22.3-56.1,55.4-56.1
				c0,0,0,0,0,0c13.7,0,26.2,4.8,35.3,13.5c9.4,9,14.6,21.7,14.6,35.7c0,4.3-0.4,8.7-1.2,12.9l0,0.2h-82.2
				c1.7,19.5,15.9,31.6,37,31.6c12.8,0,25.3-4.3,32.6-11.1l0.3-0.2l6.1,15.4l-0.1,0.1C252.1,163.7,237,168.9,221.5,168.9z
				 M219.3,57.3C219.3,57.3,219.3,57.3,219.3,57.3c-32.8,0-54.9,22.3-54.9,55.6c0,16.5,5.4,30.5,15.5,40.4
				c10.2,9.9,24.5,15.2,41.5,15.2c15.4,0,30.3-5.2,39.9-13.8l-5.7-14.4c-7.5,6.8-20,11-32.7,11c-21.5,0-35.9-12.4-37.5-32.3l0-0.3
				h82.3c0.8-4.1,1.2-8.4,1.1-12.6c0-13.9-5.1-26.5-14.4-35.4C245.3,62,232.9,57.3,219.3,57.3z M249.5,103.6h-65.4l0-0.3
				c2.3-17.5,15.7-28.7,34.2-28.7c18.5,0,30.2,10.7,31.1,28.7L249.5,103.6z M184.7,103.1H249c-1.1-17.5-12.5-28-30.6-28
				C200.2,75.1,187,86.1,184.7,103.1z"/>
		</g>
		<g>
			<path class="st0" d="M282,168h-0.2l-1.5-19.1l0.3,0c2.4,0.2,6.1-0.3,10-3.7c6.1-5.3,13.8-18.8,15.6-52.6l1.9-33.5H383v107.4
				h-19.5l0-87.9h-37.1l-1.2,17.8C320.6,156,305.3,168,282,168z M280.9,149.5l1.4,18c22.8-0.1,37.9-12.1,42.5-71l1.2-18.3h38l0,87.9
				h18.5V59.7h-73.9l-1.9,33c-1,18.8-4.5,43.2-15.8,53C287.1,149.1,283.4,149.6,280.9,149.5z"/>
		</g>
		<g>
			<path class="st0" d="M453.1,166.6h-36.4V59.2h19.5v32.1h19.2c35.2,0,42.5,20.2,42.5,37.1c0,7.4-1.7,17.9-9.8,26.2
				C480.5,162.5,468.7,166.6,453.1,166.6z M417.2,166.1h35.9c15.4,0,27.1-4,34.8-11.9c7.9-8.2,9.6-18.6,9.6-25.9
				c0-16.7-7.3-36.6-42-36.6h-19.8V59.7h-18.5V166.1z M451.7,148.8h-16V109h16.2c17.7,0,25.9,6.3,25.9,20
				C477.8,142.5,469.5,148.8,451.7,148.8z M436.2,148.3h15.5c17.7,0,25.6-5.9,25.6-19.2c0-13.3-8.1-19.5-25.4-19.5h-15.7V148.3z"/>
		</g>
	</g>
</g>
</svg>
