<svg xmlns="http://www.w3.org/2000/svg" viewBox="0 0 330.11 274.36"><g data-name="Слой 2"><g data-name="Слой 1"><g data-name="Слой 2"><path d="M134.11 75.58a37.79 37.79 0 1 1 37.79-37.79 37.83 37.83 0 0 1-37.79 37.79zm0-73.57A35.79 35.79 0 1 0 169.9 37.8 35.82 35.82 0 0 0 134.11 2zm158.21 229.87a37.79 37.79 0 1 1 37.79-37.79 37.79 37.79 0 0 1-37.79 37.79zm0-73.57a35.79 35.79 0 1 0 35.79 35.79 35.82 35.82 0 0 0-35.79-35.78zM27.58 274.36h-6.41A21.2 21.2 0 0 1 0 253.19V89a21.19 21.19 0 0 1 21.17-21.16h6.41A21.19 21.19 0 0 1 48.75 89v164.19a21.2 21.2 0 0 1-21.17 21.17zM21.17 69.84A19.19 19.19 0 0 0 2 89v164.19a19.19 19.19 0 0 0 19.17 19.17h6.41a19.19 19.19 0 0 0 19.17-19.17V89a19.19 19.19 0 0 0-19.17-19.16zM240 150.86h-38.74a6.5 6.5 0 0 1-4.59-11.13L208.41 128l-28-28a3.71 3.71 0 0 1 0-5.39l9.86-9.86a3.66 3.66 0 0 1 2.73-1.17 3.72 3.72 0 0 1 2.7 1.16l28 28L235.4 101a6.54 6.54 0 0 1 11.14 4.59v38.74a6.33 6.33 0 0 1-1.94 4.6 6.32 6.32 0 0 1-4.6 1.93zm-47-65.28a1.74 1.74 0 0 0-1.28.57l-9.9 9.85a1.71 1.71 0 0 0-.13 2.43l.13.13L211.24 128l-13.16 13.16a4.53 4.53 0 0 0 3.18 7.71H240a4.3 4.3 0 0 0 3.18-1.34 4.37 4.37 0 0 0 1.35-3.19v-38.75a4.5 4.5 0 0 0-7.72-3.18l-13.16 13.16-29.41-29.42a1.74 1.74 0 0 0-1.24-.57zm-62.78 164.58a6.36 6.36 0 0 1-4.62-1.88l-27.39-27.4a6.6 6.6 0 0 1 0-9.23l27.39-27.4a6.5 6.5 0 0 1 11.12 4.62v16.61h39.6a3.71 3.71 0 0 1 3.81 3.61v14.15a3.73 3.73 0 0 1-3.65 3.81h-39.77v16.61a6.42 6.42 0 0 1-6.34 6.5h-.15zm0-65.79a4.34 4.34 0 0 0-3.21 1.3l-27.39 27.39a4.28 4.28 0 0 0-1.29 3.2 4.3 4.3 0 0 0 1.29 3.21L127 246.86a4.61 4.61 0 0 0 6.41 0 4.28 4.28 0 0 0 1.3-3.2V225h41.6a1.73 1.73 0 0 0 1.31-.5 1.76 1.76 0 0 0 .51-1.32v-13.9a1.69 1.69 0 0 0-.5-1.31 1.77 1.77 0 0 0-1.31-.5h-41.6v-18.6a4.42 4.42 0 0 0-4.34-4.5z" fill="#fff" data-name="Слой 1-2"/></g></g></g></svg>