<svg xmlns="http://www.w3.org/2000/svg" viewBox="0 0 371.79 273.67"><g data-name="Слой 2"><g data-name="Слой 1"><g data-name="Слой 2"><path d="M37.36 273.67H11.07A11.1 11.1 0 0 1 0 262.59V79.52a11.11 11.11 0 0 1 11-11.08c4.84 0 10.58-.11 16.57-.18 12.71-.16 27.11-.33 35.58-.33 28.9 0 50.75 7 64.94 20.78 11.9 11.56 18.19 28 18.19 47.55 0 34.39-26.16 69.2-76.17 69.2-2.54 0-7.27 0-12.25-.16a9.1 9.1 0 0 0-6.62 2.54 9 9 0 0 0-2.76 6.52v48.23a11.1 11.1 0 0 1-11.1 11.08zM63.11 69.93c-8.45 0-22.85.17-35.56.33-6 .07-11.73.14-16.57.18a9.1 9.1 0 0 0-9 9.08v183.07a9.08 9.08 0 0 0 9.07 9.08h26.31a9.1 9.1 0 0 0 9.08-9.08v-48.23a11.05 11.05 0 0 1 11-11.07h.42c4.94.16 9.65.16 12.18.16 36.86 0 74.17-23.08 74.17-67.2.03-24.76-10.51-66.32-81.1-66.32zm5.51 92c-3.6 0-7.73-.17-12-.5a11.12 11.12 0 0 1-10.23-11v-27.66a11 11 0 0 1 10.72-11.06c3.79-.14 7-.25 10.64-.25 19.62 0 29.15 8 29.15 24.51 0 24.09-21.64 25.96-28.28 25.96zm-.87-48.47c-3.63 0-6.8.11-10.57.25a9 9 0 0 0-8.74 9.06v27.62a9.12 9.12 0 0 0 8.38 9.05c4.17.32 8.25.49 11.8.49 23.72 0 26.28-16.75 26.28-24 0-15.31-8.63-22.47-27.15-22.47zM224 273.67a37.79 37.79 0 1 1 37.79-37.79A37.79 37.79 0 0 1 224 273.67zm0-73.58a35.79 35.79 0 1 0 35.79 35.79A35.85 35.85 0 0 0 224 200.09zm0-25.47a37.79 37.79 0 1 1 37.79-37.79A37.83 37.83 0 0 1 224 174.62zm0-73.62a35.79 35.79 0 1 0 35.79 35.79A35.79 35.79 0 0 0 224 101zm110 73.62a37.79 37.79 0 1 1 37.79-37.79A37.83 37.83 0 0 1 334 174.62zm0-73.62a35.79 35.79 0 1 0 35.79 35.79A35.79 35.79 0 0 0 334 101zM224 75.58a37.79 37.79 0 1 1 37.79-37.79A37.83 37.83 0 0 1 224 75.58zM224 2a35.79 35.79 0 1 0 35.79 35.8A35.79 35.79 0 0 0 224 2z" fill="#fff" data-name="Слой 1-2"/></g></g></g></svg>