<svg xmlns="http://www.w3.org/2000/svg" viewBox="0 0 201.09 201.44"><defs><style>.cls-1{fill:#ff6f61;}</style></defs><title>bitrix</title><g id="Слой_2" data-name="Слой 2"><g id="svg2"><g id="layer1"><g id="path821"><path class="cls-1" d="M99.77,201.44c-9.1,0-14.63-.38-18.63-1.23h0A102.14,102.14,0,0,1,34.28,177a101,101,0,0,1-31.87-53.9,102.56,102.56,0,0,1,6-62.75A98.37,98.37,0,0,1,28.38,31.11l7.81-8v.3l.5,45.8c.5,44.16.6,46.09,2.69,51.56,4.23,11.16,8.64,18.12,16.27,25.65A64.51,64.51,0,0,0,90.5,164.54,63,63,0,0,0,129,158.88a64.79,64.79,0,0,0,27.33-25.53A62.34,62.34,0,0,0,165,97.5C163.94,80.66,158.24,68.25,146,56c-9.35-9.34-20.09-15.36-31.94-17.87l-1.69-.35c-5-1-7.55-1.57-8.67-.66s-1,2.95-1,6.81V54l6.5,1.18a47,47,0,0,1,37.4,55.45,45.59,45.59,0,0,1-11.63,22,46.68,46.68,0,0,1-76.31-11.83A50.83,50.83,0,0,1,56,113.42c-3.76-16.33-1.42-50.79-1.4-51.14l-.3-50.77L57.41,10A13.79,13.79,0,0,1,61,8.47c.2,0,.34,0,.57,15.33.13,9.08.26,21.73.36,36.59,0,.39-3.55,37.45.89,51.57.6,2.07,1.89,5.55,1.9,5.59,4.18,8.57,10.69,15.29,18.34,18.93,6.35,3,9.54,4.29,18.54,4.29,5.89,0,11-1.8,17.45-4.69,7.37-3.38,15.51-12.22,18.54-20.13a39.52,39.52,0,0,0-25.92-52.54l-.68-.19c-4.13-1.21-6.2-1.81-7.22-1s-1,3.09-1,7.7V79.2L107,80.37a20.9,20.9,0,0,1,14.94,15.87,21.51,21.51,0,0,1-6.59,21.15c-4.63,4.1-8.83,5.63-15.49,5.63a21.46,21.46,0,0,1-20.92-21.53c0-16.51-.4-46.59-.4-46.9L78.24,2.8l2.39-.63c1.23-.28,6.29-1.09,11.42-1.7,16.72-2.18,42,3.42,58.78,13,22.94,13.13,40.24,35.61,47.46,61.68,2.51,9,2.8,11.62,2.8,25.93s-.28,16.94-2.71,25.84c-9.76,35.28-34.83,60.67-70.58,71.48-7.43,2.28-10.85,2.7-24.33,3ZM35.94,23.7l-7.39,7.58A98.48,98.48,0,0,0,8.68,60.44a102.37,102.37,0,0,0-6,62.6,100.76,100.76,0,0,0,31.8,53.76A101.93,101.93,0,0,0,81.19,200h0c4.49,1,11,1.3,22.27,1.2,13.46-.31,16.86-.73,24.27-3,35.66-10.79,60.67-36.11,70.41-71.31,2.42-8.87,2.7-11.52,2.7-25.77s-.29-16.94-2.8-25.86c-7.2-26-24.45-48.44-47.34-61.53C134,4.13,108.75-1.46,92.08.72,87,1.33,81.91,2.13,80.69,2.41L78.49,3l.3,51.6c0,.3.4,30.39.4,46.9a21.23,21.23,0,0,0,20.67,21.28c6.68,0,10.68-1.46,15.32-5.57a21,21,0,0,0,6.51-20.9,20.64,20.64,0,0,0-14.76-15.69l-4.49-1.22V69.87c0-4.69,0-7,1.14-7.9s3.23-.22,7.44,1l.68.19A39.77,39.77,0,0,1,137.78,116c-3.05,8-11.25,16.87-18.66,20.27-6.44,2.9-11.63,4.71-17.56,4.71-9,0-12.26-1.33-18.65-4.31-7.7-3.66-14.25-10.43-18.46-19.06,0-.05-1.31-3.54-1.91-5.62-4.45-14.16-.94-51.28-.9-51.65-.21-30.54-.5-50.18-.76-51.65a15.56,15.56,0,0,0-3.35,1.47l-2.94,1.47.3,50.62c0,.36-2.36,34.78,1.4,51.07a49.4,49.4,0,0,0,2.59,7.28,46.42,46.42,0,0,0,75.89,11.77,45.23,45.23,0,0,0,11.57-21.84,46.73,46.73,0,0,0-37.2-55.15l-6.7-1.22V43.91c0-4.06,0-6.1,1.09-7s3.61-.49,8.87.61l1.69.35c11.9,2.52,22.68,8.55,32.06,17.93,12.32,12.32,18,24.78,19.14,41.68a62.59,62.59,0,0,1-8.73,36,65.09,65.09,0,0,1-27.44,25.62,63.26,63.26,0,0,1-38.66,5.69,64.81,64.81,0,0,1-35-18.21C47.81,139,43.39,132,39.15,120.84c-2.11-5.51-2.21-7.44-2.71-51.65Z"/></g></g></g></g></svg>