<svg xmlns="http://www.w3.org/2000/svg" viewBox="0 0 371.81 282.66"><defs><style>.cls-1{fill:#ff6f61}</style></defs><g id="Слой_2" data-name="Слой 2"><g id="Слой_1-2" data-name="Слой 1"><circle class="cls-1" cx="213.98" cy="146.83" r="36.79"/><circle class="cls-1" cx="213.98" cy="47.79" r="36.79"/><circle class="cls-1" cx="213.98" cy="245.87" r="36.79"/><path d="M37.36 273.66H11.07A11.09 11.09 0 0 1 0 262.58V79.51a11.11 11.11 0 0 1 11-11.08c4.84 0 10.58-.11 16.57-.18 12.71-.16 27.11-.33 35.58-.33 28.9 0 50.75 7 64.94 20.78 11.9 11.56 18.19 28 18.19 47.55 0 34.39-26.16 69.2-76.17 69.2-2.54 0-7.27 0-12.25-.16a9.11 9.11 0 0 0-6.62 2.54 9 9 0 0 0-2.76 6.52v48.23a11.09 11.09 0 0 1-11.12 11.08zM63.11 69.92c-8.45 0-22.85.17-35.56.33-6 .07-11.73.14-16.57.18a9.1 9.1 0 0 0-9 9.08v183.07a9.08 9.08 0 0 0 9.07 9.08h26.31a9.09 9.09 0 0 0 9.08-9.08v-48.23a11.05 11.05 0 0 1 11.45-11.06c4.94.16 9.65.16 12.18.16 36.86 0 74.17-23.08 74.17-67.2 0-24.77-10.54-66.33-81.13-66.33zm5.51 92c-3.6 0-7.73-.17-12-.5a11.12 11.12 0 0 1-10.23-11v-27.66a11 11 0 0 1 10.72-11.06c3.79-.14 7-.25 10.64-.25 19.62 0 29.15 8 29.15 24.51 0 24.09-21.64 25.96-28.28 25.96zm-.87-48.47c-3.63 0-6.8.11-10.57.25a9 9 0 0 0-8.74 9.06v27.62a9.12 9.12 0 0 0 8.38 9.05c4.17.32 8.25.49 11.8.49 23.72 0 26.28-16.75 26.28-24 0-15.31-8.63-22.47-27.15-22.47zM224 273.66a37.79 37.79 0 1 1 37.79-37.79A37.84 37.84 0 0 1 224 273.66zm0-73.58a35.79 35.79 0 1 0 35.79 35.79A35.84 35.84 0 0 0 224 200.08zm0-25.47a37.79 37.79 0 1 1 37.79-37.78A37.83 37.83 0 0 1 224 174.61zm0-73.61a35.79 35.79 0 1 0 35.79 35.79A35.84 35.84 0 0 0 224 101zm110 73.61a37.79 37.79 0 1 1 37.79-37.78A37.83 37.83 0 0 1 334 174.61zm0-73.61a35.79 35.79 0 1 0 35.79 35.79A35.83 35.83 0 0 0 334 101zM224 75.57a37.79 37.79 0 1 1 37.79-37.78A37.83 37.83 0 0 1 224 75.57zM224 2a35.79 35.79 0 1 0 35.79 35.79A35.83 35.83 0 0 0 224 2z" fill="#fff"/></g></g></svg>