<svg xmlns="http://www.w3.org/2000/svg" viewBox="0 0 371.81 282.66"><defs><style>.cls-1{fill:#ff6f61;}.cls-2{fill:#fff;}</style></defs><title>icon_1</title><g id="Слой_2" data-name="Слой 2"><g id="Слой_1-2" data-name="Слой 1"><circle class="cls-1" cx="213.98" cy="146.83" r="36.79"/><circle class="cls-1" cx="213.98" cy="47.79" r="36.79"/><circle class="cls-1" cx="213.98" cy="245.87" r="36.79"/><path class="cls-2" d="M37.36,273.66H11.07A11.09,11.09,0,0,1,0,262.58V79.51A11.11,11.11,0,0,1,11,68.43c4.84,0,10.58-.11,16.57-.18,12.71-.16,27.11-.33,35.58-.33,28.9,0,50.75,7,64.94,20.78,11.9,11.56,18.19,28,18.19,47.55,0,34.39-26.16,69.2-76.17,69.2-2.54,0-7.27,0-12.25-.16a9.11,9.11,0,0,0-6.62,2.54,9,9,0,0,0-2.76,6.52v48.23A11.09,11.09,0,0,1,37.36,273.66ZM63.11,69.92c-8.45,0-22.85.17-35.56.33-6,.07-11.73.14-16.57.18a9.1,9.1,0,0,0-9,9.08V262.58a9.08,9.08,0,0,0,9.07,9.08H37.36a9.09,9.09,0,0,0,9.08-9.08V214.35a11.05,11.05,0,0,1,11.45-11.06c4.94.16,9.65.16,12.18.16,36.86,0,74.17-23.08,74.17-67.2C144.24,111.48,133.7,69.92,63.11,69.92Zm5.51,92c-3.6,0-7.73-.17-12-.5a11.12,11.12,0,0,1-10.23-11V122.76A11,11,0,0,1,57.11,111.7c3.79-.14,7-.25,10.64-.25,19.62,0,29.15,8,29.15,24.51C96.9,160.05,75.26,161.92,68.62,161.92Zm-.87-48.47c-3.63,0-6.8.11-10.57.25a9,9,0,0,0-8.74,9.06v27.62a9.12,9.12,0,0,0,8.38,9.05c4.17.32,8.25.49,11.8.49,23.72,0,26.28-16.75,26.28-24C94.9,120.61,86.27,113.45,67.75,113.45Z"/><path class="cls-2" d="M224,273.66a37.79,37.79,0,1,1,37.79-37.79A37.84,37.84,0,0,1,224,273.66Zm0-73.58a35.79,35.79,0,1,0,35.79,35.79A35.84,35.84,0,0,0,224,200.08Z"/><path class="cls-2" d="M224,174.61a37.79,37.79,0,1,1,37.79-37.78A37.83,37.83,0,0,1,224,174.61ZM224,101a35.79,35.79,0,1,0,35.79,35.79A35.84,35.84,0,0,0,224,101Z"/><path class="cls-2" d="M334,174.61a37.79,37.79,0,1,1,37.79-37.78A37.83,37.83,0,0,1,334,174.61ZM334,101a35.79,35.79,0,1,0,35.79,35.79A35.83,35.83,0,0,0,334,101Z"/><path class="cls-2" d="M224,75.57a37.79,37.79,0,1,1,37.79-37.78A37.83,37.83,0,0,1,224,75.57ZM224,2a35.79,35.79,0,1,0,35.79,35.79A35.83,35.83,0,0,0,224,2Z"/></g></g></svg>