<svg xmlns="http://www.w3.org/2000/svg" viewBox="0 0 330.46 257.86"><defs><style>.cls-1{fill:#ff6f61}.cls-2{fill:#fff}</style></defs><g id="Слой_2" data-name="Слой 2"><g id="Слой_1-2" data-name="Слой 1"><circle class="cls-1" cx="222.95" cy="169.47" r="36.79"/><path class="cls-2" d="M233 197.25a37.79 37.79 0 1 1 37.79-37.78A37.83 37.83 0 0 1 233 197.25zm0-73.57a35.79 35.79 0 1 0 35.79 35.79A35.84 35.84 0 0 0 233 123.68zM108.23 257.86c-31.51 0-58.52-10.13-78.09-29.29C10.42 209.28 0 182.48 0 151.09c0-30.41 9.45-56.54 27.33-75.59 19.15-20.4 47-31.18 80.61-31.18A108 108 0 0 1 151.31 53a21.81 21.81 0 0 1 11.9 13.28 22.09 22.09 0 0 1-2 18l-.61 1a22.15 22.15 0 0 1-27.08 9.24 69.54 69.54 0 0 0-25.56-4.41c-15.68 0-29.8 5.52-39.76 15.55-10.8 10.88-16.51 26.57-16.51 45.39C51.67 187 76.73 212 112.61 212a73.28 73.28 0 0 0 27.39-5.42 22.06 22.06 0 0 1 27.77 10.47 21.93 21.93 0 0 1-9.43 29.48c-14.14 7.2-32.4 11.33-50.11 11.33zm-.29-211.54c-33 0-60.39 10.56-79.15 30.55C11.26 95.54 2 121.2 2 151.09c0 62.66 42.69 104.77 106.23 104.77 17.41 0 35.34-4.05 49.19-11.11a20 20 0 0 0-16.67-36.31 75.45 75.45 0 0 1-28.14 5.56c-37.06 0-62.94-25.88-62.94-62.94 0-19.35 5.91-35.54 17.09-46.8 10.34-10.41 25-16.14 41.18-16.14a71.49 71.49 0 0 1 26.28 4.54 20.15 20.15 0 0 0 24.64-8.39l.61-1a20.11 20.11 0 0 0 1.84-16.36 19.78 19.78 0 0 0-10.81-12.06 106 106 0 0 0-42.56-8.53z"/><path class="cls-1" d="M223.38 39.82v22.42A28.86 28.86 0 0 0 250.51 91a.11.11 0 0 1 .09.1v13.1a2.85 2.85 0 0 0 2 2.8 2.69 2.69 0 0 0 2.65-.7l3-3a41.51 41.51 0 0 1 29.54-12.24h2.75a28.92 28.92 0 0 0 28.92-28.92V39.92A28.92 28.92 0 0 0 290.53 11H252.2a28.85 28.85 0 0 0-28.82 28.82z"/><path class="cls-2" d="M263.33 98.1a3.71 3.71 0 0 1-3.73-3.9V82a29.85 29.85 0 0 1-27.22-29.71V29.82A29.86 29.86 0 0 1 262.2 0h38.33a30 30 0 0 1 29.93 29.92v22.22a30 30 0 0 1-29.93 29.92h-2.75A40.51 40.51 0 0 0 269 94l-3 3a3.71 3.71 0 0 1-2.67 1.1zM262.2 2a27.86 27.86 0 0 0-27.82 27.82v22.42A27.84 27.84 0 0 0 260.57 80a1.09 1.09 0 0 1 1 1.09V94.2a1.88 1.88 0 0 0 1.28 1.8 1.71 1.71 0 0 0 1.68-.45l3-3a42.47 42.47 0 0 1 30.24-12.53h2.75a28 28 0 0 0 27.93-27.92V29.92A28 28 0 0 0 300.53 2zm-1.75 80z"/></g></g></svg>