<svg xmlns="http://www.w3.org/2000/svg" viewBox="0 0 330.11 274.35"><defs><style>.cls-1{fill:#ff6f61}.cls-2{fill:#fff}</style></defs><g id="Слой_2" data-name="Слой 2"><g id="Слой_1-2" data-name="Слой 1"><circle class="cls-1" cx="124.11" cy="47.79" r="36.79"/><path class="cls-2" d="M134.11 75.57a37.79 37.79 0 1 1 37.79-37.78 37.83 37.83 0 0 1-37.79 37.78zm0-73.57a35.79 35.79 0 1 0 35.79 35.79A35.82 35.82 0 0 0 134.11 2z"/><circle class="cls-1" cx="282.32" cy="204.09" r="36.79"/><path class="cls-2" d="M292.32 231.87a37.79 37.79 0 1 1 37.79-37.79 37.83 37.83 0 0 1-37.79 37.79zm0-73.57a35.79 35.79 0 1 0 35.79 35.78 35.82 35.82 0 0 0-35.79-35.78zM27.58 274.35h-6.41A21.2 21.2 0 0 1 0 253.18V89a21.19 21.19 0 0 1 21.17-21.17h6.41A21.19 21.19 0 0 1 48.75 89v164.18a21.2 21.2 0 0 1-21.17 21.17zM21.17 69.83A19.19 19.19 0 0 0 2 89v164.18a19.19 19.19 0 0 0 19.17 19.17h6.41a19.19 19.19 0 0 0 19.17-19.17V89a19.19 19.19 0 0 0-19.17-19.17zM240 150.85h-38.74a6.5 6.5 0 0 1-4.59-11.13L208.41 128l-28-28a3.72 3.72 0 0 1-1.16-2.7 3.68 3.68 0 0 1 1.16-2.69l9.86-9.86a3.68 3.68 0 0 1 2.73-1.18 3.72 3.72 0 0 1 2.7 1.16l28 28L235.4 101a6.54 6.54 0 0 1 11.14 4.59v38.74a6.32 6.32 0 0 1-1.94 4.6 6.31 6.31 0 0 1-4.6 1.92zm-47-65.28a1.74 1.74 0 0 0-1.28.57l-9.9 9.86a1.72 1.72 0 0 0 0 2.56L211.24 128l-13.16 13.16a4.53 4.53 0 0 0 3.18 7.71H240a4.31 4.31 0 0 0 3.18-1.34 4.36 4.36 0 0 0 1.35-3.19v-38.76a4.5 4.5 0 0 0-7.72-3.18l-13.16 13.16-29.41-29.42a1.72 1.72 0 0 0-1.24-.57z"/><path class="cls-1" d="M110.32 216.25a5.33 5.33 0 0 0 1.59 3.92l27.4 27.39a5.5 5.5 0 0 0 9.41-3.91V226h40.6a2.74 2.74 0 0 0 2.82-2.81v-13.91a2.72 2.72 0 0 0-2.81-2.81h-40.6v-17.61a5.53 5.53 0 0 0-9.41-3.91l-27.39 27.39a5.28 5.28 0 0 0-1.61 3.91z"/><path class="cls-2" d="M130.22 250.15a6.34 6.34 0 0 1-4.62-1.88l-27.39-27.4a6.6 6.6 0 0 1 0-9.23l27.39-27.4a6.5 6.5 0 0 1 11.12 4.62v16.61h39.6a3.71 3.71 0 0 1 3.81 3.81v13.95a3.73 3.73 0 0 1-3.82 3.81h-39.6v16.61a6.42 6.42 0 0 1-6.5 6.5zm0-65.79a4.36 4.36 0 0 0-3.21 1.3l-27.39 27.39a4.27 4.27 0 0 0-1.29 3.2 4.28 4.28 0 0 0 1.29 3.21L127 246.85a4.6 4.6 0 0 0 6.41 0 4.28 4.28 0 0 0 1.3-3.2V225h41.6a1.73 1.73 0 0 0 1.31-.5 1.77 1.77 0 0 0 .51-1.32v-13.9a1.72 1.72 0 0 0-.5-1.31 1.74 1.74 0 0 0-1.31-.5h-41.6v-18.61a4.42 4.42 0 0 0-4.5-4.5z"/></g></g></svg>