<svg xmlns="http://www.w3.org/2000/svg" viewBox="0 0 373.92 206.52"><defs><style>.cls-2{fill:#fff}</style></defs><g id="Слой_2" data-name="Слой 2"><g id="Слой_1-2" data-name="Слой 1"><circle cx="294.14" cy="98.26" r="56.09" fill="#ff6f61"/><path class="cls-2" d="M294.14 136.05a37.79 37.79 0 1 1 37.79-37.79 37.83 37.83 0 0 1-37.79 37.79zm0-73.57a35.79 35.79 0 1 0 35.79 35.78 35.82 35.82 0 0 0-35.79-35.78zM186.85 206.52A16.57 16.57 0 1 1 203.42 190a16.59 16.59 0 0 1-16.57 16.52zm0-31.13A14.57 14.57 0 1 0 201.42 190a14.59 14.59 0 0 0-14.57-14.61zm-88.97 31.13H86.41a18.89 18.89 0 0 1-17.63-11.93L1.36 26A19 19 0 0 1 19 0h11a19.07 19.07 0 0 1 17.73 12.23l42.08 110.44a4.07 4.07 0 0 0 3.89 2.68 4.09 4.09 0 0 0 3.88-2.74l40-110.11A19 19 0 0 1 155.49 0h8.13a19 19 0 0 1 17.68 25.88l-65.73 168.56a18.88 18.88 0 0 1-17.69 12.08zM19 2A16.75 16.75 0 0 0 4.92 9.46a16.74 16.74 0 0 0-1.7 15.83l67.42 168.56a16.9 16.9 0 0 0 15.77 10.67h11.47a16.89 16.89 0 0 0 15.83-10.81l65.73-168.55a16.75 16.75 0 0 0-1.8-15.76 16.75 16.75 0 0 0-14-7.4h-8.13a17 17 0 0 0-16 11.18l-40 110.11a6.12 6.12 0 0 1-5.75 4.06 6.11 6.11 0 0 1-5.75-4L45.86 12.94A17.08 17.08 0 0 0 30 2z"/><path class="cls-2" d="M294.14 178a79.78 79.78 0 1 1 79.78-79.78A79.87 79.87 0 0 1 294.14 178zm0-157.56a77.78 77.78 0 1 0 77.78 77.78 77.87 77.87 0 0 0-77.78-77.74z"/></g></g></svg>